<svg width="20" height="20" viewBox="0 0 20 20" fill="none" xmlns="http://www.w3.org/2000/svg">
<path fill-rule="evenodd" clip-rule="evenodd" d="M5 2C5.55228 2 6 2.44772 6 3C6 3.55228 5.55228 4 5 4C4.44772 4 4 3.55228 4 3C4 2.44772 4.44772 2 5 2ZM2.17071 2L1 2C0.447715 2 0 2.44772 0 3C0 3.55228 0.447715 4 1 4H2.17071C2.58254 5.16519 3.69378 6 5 6C6.30622 6 7.41746 5.16519 7.82929 4L19 4C19.5523 4 20 3.55228 20 3C20 2.44772 19.5523 2 19 2L7.82929 2C7.41746 0.834807 6.30622 0 5 0C3.69378 0 2.58254 0.834808 2.17071 2ZM19 11C19.5523 11 20 10.5523 20 10C20 9.44771 19.5523 9 19 9H17.8293C17.4175 7.83481 16.3062 7 15 7C13.6938 7 12.5825 7.83481 12.1707 9H1C0.447715 9 0 9.44771 0 10C0 10.5523 0.447715 11 1 11H12.1707C12.5825 12.1652 13.6938 13 15 13C16.3062 13 17.4175 12.1652 17.8293 11H19ZM14 10C14 10.5523 14.4477 11 15 11C15.5523 11 16 10.5523 16 10C16 9.44771 15.5523 9 15 9C14.4477 9 14 9.44771 14 10ZM5 18C4.44772 18 4 17.5523 4 17C4 16.4477 4.44772 16 5 16C5.55228 16 6 16.4477 6 17C6 17.5523 5.55228 18 5 18ZM19 18H7.82929C7.41746 19.1652 6.30622 20 5 20C3.69378 20 2.58254 19.1652 2.17071 18H1C0.447715 18 0 17.5523 0 17C0 16.4477 0.447715 16 1 16H2.17071C2.58254 14.8348 3.69378 14 5 14C6.30622 14 7.41746 14.8348 7.82929 16L19 16C19.5523 16 20 16.4477 20 17C20 17.5523 19.5523 18 19 18Z" fill="#292826"/>
</svg>
