<svg width="18" height="20" viewBox="0 0 18 20" fill="none" xmlns="http://www.w3.org/2000/svg">
<path d="M15.634 4.80477C16.3064 5.39307 16.6425 5.68722 16.8213 6.0811C17 6.47499 17 6.92169 17 7.81507L17 15C17 16.8856 17 17.8284 16.4142 18.4142C15.8284 19 14.8856 19 13 19H5C3.11438 19 2.17157 19 1.58579 18.4142C1 17.8284 1 16.8856 1 15L1 5C1 3.11438 1 2.17157 1.58579 1.58579C2.17157 1 3.11438 1 5 1H9.78277C10.526 1 10.8976 1 11.2377 1.12779C11.5778 1.25559 11.8575 1.50029 12.4168 1.98969L15.634 4.80477Z" stroke="#323232" stroke-width="2" stroke-linejoin="round"/>
<path d="M5.44434 11.2222L7.19677 12.9747V12.9747C7.45623 13.2341 7.87689 13.2341 8.13635 12.9747V12.9747L12.111 9" stroke="#323232" stroke-width="2" stroke-linecap="round" stroke-linejoin="round"/>
</svg>
