<svg width="24" height="24" viewBox="0 0 24 24" fill="none" xmlns="http://www.w3.org/2000/svg">
<rect width="24" height="24" />
<path d="M15 10C15 11.6569 13.6569 13 12 13C10.3431 13 9 11.6569 9 10C9 8.34315 10.3431 7 12 7C13.6569 7 15 8.34315 15 10Z" stroke="#323232" stroke-width="2"/>
<path d="M6.89258 17.3151C7.83086 16.335 9.41279 16 11.9998 16C14.6214 16 16.2109 16.3191 17.1443 17.3151" stroke="#323232" stroke-width="2" stroke-linecap="round"/>
<path d="M16.2836 5C17.1418 5.33341 18.174 5.58053 19.0023 5.7457C19.8831 5.92135 20.5993 6.61614 20.661 7.51221C21.0732 13.5058 18.5737 18.0588 12.7429 20.6833C12.271 20.8957 11.7284 20.8957 11.2565 20.6833C5.43023 18.0608 2.93022 13.5129 3.3376 7.52623C3.39903 6.62355 4.1245 5.92586 5.01398 5.76023C5.90042 5.59516 7.01557 5.34333 7.89931 5C9.33319 4.44294 11.1043 3.49316 11.7496 3.13876C11.906 3.0529 12.0952 3.04987 12.2539 3.13122L12.2686 3.13876C12.9607 3.49316 14.8497 4.44294 16.2836 5Z" stroke="#323232" stroke-width="2" stroke-linecap="round" stroke-linejoin="round"/>
</svg>
