<svg width="16" height="14" viewBox="0 0 16 14" fill="none" xmlns="http://www.w3.org/2000/svg">
<path fill-rule="evenodd" clip-rule="evenodd" d="M11.8191 3.0835C11.848 3.134 11.8985 3.17007 11.9635 3.17007C13.6969 3.17007 15.1124 4.58405 15.1124 6.31546V10.6007C15.1124 12.3321 13.6969 13.7461 11.9635 13.7461H3.81686C2.0763 13.7461 0.667969 12.3321 0.667969 10.6007V6.31546C0.667969 4.58405 2.0763 3.17007 3.81686 3.17007C3.87464 3.17007 3.93241 3.14121 3.95408 3.0835L3.99741 2.99693C4.02231 2.94453 4.04786 2.89072 4.07379 2.83609C4.25856 2.44691 4.46297 2.01634 4.58964 1.7633C4.92186 1.11402 5.48519 0.753308 6.18575 0.746094H9.58741C10.288 0.753308 10.8585 1.11402 11.1907 1.7633C11.3045 1.99052 11.4778 2.35652 11.6448 2.70929C11.6793 2.78213 11.7135 2.85441 11.7469 2.92478L11.8191 3.0835ZM11.2918 5.85362C11.2918 6.21433 11.5807 6.50289 11.9418 6.50289C12.3029 6.50289 12.5991 6.21433 12.5991 5.85362C12.5991 5.49291 12.3029 5.19712 11.9418 5.19712C11.5807 5.19712 11.2918 5.49291 11.2918 5.85362ZM6.64078 6.97206C6.98023 6.63299 7.42078 6.45264 7.89023 6.45264C8.35967 6.45264 8.80023 6.63299 9.13245 6.96485C9.46467 7.2967 9.64523 7.73677 9.64523 8.20569C9.63801 9.17239 8.85801 9.95874 7.89023 9.95874C7.42078 9.95874 6.98023 9.77839 6.64801 9.44653C6.31578 9.11468 6.13523 8.67461 6.13523 8.20569V8.19848C6.12801 7.74398 6.30856 7.30391 6.64078 6.97206ZM9.89071 10.2111C9.37793 10.7233 8.67015 11.0407 7.89015 11.0407C7.13182 11.0407 6.42404 10.7449 5.88237 10.2111C5.34793 9.67003 5.05182 8.96304 5.05182 8.20554C5.04459 7.45527 5.3407 6.74828 5.87515 6.20721C6.41682 5.66614 7.13182 5.37036 7.89015 5.37036C8.64848 5.37036 9.36348 5.66614 9.89793 6.2C10.4324 6.74106 10.7285 7.45527 10.7285 8.20554C10.7213 8.99189 10.4035 9.69889 9.89071 10.2111Z" fill="#BFC1C5"/>
</svg>
