<svg width="19" height="16" viewBox="0 0 19 16" fill="none" xmlns="http://www.w3.org/2000/svg">
<path fill-rule="evenodd" clip-rule="evenodd" d="M14.396 3.0049C14.432 3.0655 14.495 3.10878 14.576 3.10878C16.736 3.10878 18.5 4.80556 18.5 6.88325V12.0255C18.5 14.1032 16.736 15.8 14.576 15.8H4.424C2.255 15.8 0.5 14.1032 0.5 12.0255V6.88325C0.5 4.80556 2.255 3.10878 4.424 3.10878C4.496 3.10878 4.568 3.07415 4.595 3.0049L4.649 2.90101C4.68002 2.83813 4.71187 2.77354 4.74419 2.70798C4.97443 2.24097 5.22916 1.72431 5.387 1.42066C5.801 0.641522 6.503 0.208669 7.376 0.200012H11.615C12.488 0.208669 13.199 0.641522 13.613 1.42066C13.7548 1.69336 13.9707 2.13262 14.1789 2.556C14.2218 2.64336 14.2644 2.73004 14.306 2.81444L14.396 3.0049ZM13.7383 6.32911C13.7383 6.76196 14.0983 7.10825 14.5483 7.10825C14.9983 7.10825 15.3673 6.76196 15.3673 6.32911C15.3673 5.89626 14.9983 5.54132 14.5483 5.54132C14.0983 5.54132 13.7383 5.89626 13.7383 6.32911ZM7.94276 7.67098C8.36576 7.26409 8.91476 7.04767 9.49976 7.04767C10.0848 7.04767 10.6338 7.26409 11.0478 7.66232C11.4618 8.06054 11.6868 8.58862 11.6868 9.15133C11.6778 10.3114 10.7058 11.255 9.49976 11.255C8.91476 11.255 8.36576 11.0386 7.95176 10.6403C7.53776 10.2421 7.31276 9.71404 7.31276 9.15133V9.14267C7.30376 8.59728 7.52876 8.0692 7.94276 7.67098ZM11.9931 11.5582C11.3541 12.1729 10.4721 12.5538 9.50005 12.5538C8.55505 12.5538 7.67305 12.1988 6.99805 11.5582C6.33205 10.9089 5.96305 10.0605 5.96305 9.15155C5.95405 8.25122 6.32305 7.40282 6.98905 6.75355C7.66405 6.10427 8.55505 5.74933 9.50005 5.74933C10.4451 5.74933 11.3361 6.10427 12.0021 6.74489C12.6681 7.39417 13.0371 8.25122 13.0371 9.15155C13.0281 10.0952 12.6321 10.9436 11.9931 11.5582Z" fill="#91908F"/>
</svg>
