<svg width="20" height="21" viewBox="0 0 20 21" fill="none" xmlns="http://www.w3.org/2000/svg">
<path fill-rule="evenodd" clip-rule="evenodd" d="M0 10.2471C0 4.72422 4.47715 0.24707 10 0.24707C15.5228 0.24707 20 4.72422 20 10.2471C20 15.7699 15.5228 20.2471 10 20.2471C4.47715 20.2471 0 15.7699 0 10.2471ZM13.7071 7.53996C14.0976 7.93049 14.0976 8.56365 13.7071 8.95418L10.0243 12.637C9.4586 13.2027 8.54139 13.2027 7.97568 12.637L6.29289 10.9542C5.90237 10.5637 5.90237 9.93049 6.29289 9.53996C6.68342 9.14944 7.31658 9.14944 7.70711 9.53996L9 10.8329L12.2929 7.53996C12.6834 7.14944 13.3166 7.14944 13.7071 7.53996Z" fill="#569D00"/>
</svg>
