<svg width="20" height="21" viewBox="0 0 20 21" fill="none" xmlns="http://www.w3.org/2000/svg">
<path fill-rule="evenodd" clip-rule="evenodd" d="M2 10.6465C2 6.22821 5.58172 2.64648 10 2.64648C14.4183 2.64648 18 6.22821 18 10.6465C18 15.0648 14.4183 18.6465 10 18.6465C5.58172 18.6465 2 15.0648 2 10.6465ZM10 0.646484C4.47715 0.646484 0 5.12364 0 10.6465C0 16.1693 4.47715 20.6465 10 20.6465C15.5228 20.6465 20 16.1693 20 10.6465C20 5.12364 15.5228 0.646484 10 0.646484ZM12.4453 13.4785C12.9048 13.7849 13.5257 13.6607 13.8321 13.2012C14.1384 12.7417 14.0142 12.1208 13.5547 11.8144L11 10.1113V5.64648C11 5.0942 10.5523 4.64648 10 4.64648C9.44771 4.64648 9 5.0942 9 5.64648V10.1465V10.166C9 10.8005 9.31711 11.3931 9.84506 11.745L12.4453 13.4785Z" fill="#292826"/>
</svg>
