<svg width="20" height="21" viewBox="0 0 20 21" fill="none" xmlns="http://www.w3.org/2000/svg">
<path fill-rule="evenodd" clip-rule="evenodd" d="M4 3C4 2.44772 4.44772 2 5 2H11H17C17.5523 2 18 2.44772 18 3V5.2224V15.7784V18.0008C18 18.5531 17.5523 19.0008 17 19.0008H16.0002C16 18.9387 15.9939 18.8758 15.9817 18.8126C15.7432 17.5842 15.2746 16.584 14.327 15.9492C13.4305 15.3487 12.2799 15.2008 11 15.2008C9.71016 15.2008 8.55845 15.3632 7.66238 15.9803C6.72274 16.6273 6.25636 17.634 6.01832 18.8604C6.00919 18.9074 6.00352 18.9543 6.00113 19.0008H5C4.44772 19.0008 4 18.5531 4 18.0008V15.7784V15.251V10.5005V5.75049V5.2224V3ZM2 11.5005V14.251H1C0.447715 14.251 0 14.6987 0 15.251C0 15.8033 0.447715 16.251 1 16.251H2V18.0008C2 19.6577 3.34315 21.0008 5 21.0008H11H17C18.6569 21.0008 20 19.6577 20 18.0008V15.7784V5.2224V3C20 1.34315 18.6569 0 17 0H11H5C3.34315 0 2 1.34315 2 3V4.75049H1C0.447715 4.75049 0 5.19821 0 5.75049C0 6.30278 0.447715 6.75049 1 6.75049H2V9.50049H1C0.447715 9.50049 0 9.94821 0 10.5005C0 11.0528 0.447715 11.5005 1 11.5005H2ZM13.2139 17.6108C13.5173 17.814 13.7906 18.1753 13.9778 19.0008H11H8.03315C8.22068 18.2042 8.49187 17.8374 8.79671 17.6275C9.17427 17.3675 9.80983 17.2008 11 17.2008C12.2001 17.2008 12.8367 17.3581 13.2139 17.6108ZM9 10.5002C9 9.5261 9.84652 8.6501 11 8.6501C12.1535 8.6501 13 9.5261 13 10.5002C13 11.4743 12.1535 12.3503 11 12.3503C9.84652 12.3503 9 11.4743 9 10.5002ZM11 6.6501C8.83977 6.6501 7 8.32619 7 10.5002C7 12.6743 8.83977 14.3503 11 14.3503C13.1602 14.3503 15 12.6743 15 10.5002C15 8.32619 13.1602 6.6501 11 6.6501Z" fill="#292826"/>
</svg>
