<svg width="60" height="60" viewBox="0 0 60 60" fill="none" xmlns="http://www.w3.org/2000/svg">
<path d="M30 0.833328C13.9583 0.833328 0.833344 13.9583 0.833344 30C0.833344 46.0417 13.9583 59.1667 30 59.1667C46.0417 59.1667 59.1667 46.0417 59.1667 30C59.1667 13.9583 46.0417 0.833328 30 0.833328ZM30 53.3333C17.1375 53.3333 6.66668 42.8625 6.66668 30C6.66668 17.1375 17.1375 6.66666 30 6.66666C42.8625 6.66666 53.3333 17.1375 53.3333 30C53.3333 42.8625 42.8625 53.3333 30 53.3333ZM43.3875 17.1083L24.1667 36.3292L16.6125 28.8042L12.5 32.9167L24.1667 44.5833L47.5 21.25L43.3875 17.1083Z" fill="#569D00"/>
</svg>
