<svg width="25" height="25" viewBox="0 0 25 25" fill="none" xmlns="http://www.w3.org/2000/svg">
<path fill-rule="evenodd" clip-rule="evenodd" d="M12.5 21.8749C12.5 21.2996 12.9664 20.8333 13.5417 20.8333H21.875C22.4503 20.8333 22.9167 21.2996 22.9167 21.8749C22.9167 22.4502 22.4503 22.9166 21.875 22.9166H13.5417C12.9664 22.9166 12.5 22.4502 12.5 21.8749Z" fill="white"/>
<path fill-rule="evenodd" clip-rule="evenodd" d="M21.6392 8.43735C23.316 6.75388 23.2448 4.54317 21.9927 3.18932C21.3821 2.52919 20.5131 2.10752 19.5288 2.08427C18.5409 2.06093 17.5174 2.43874 16.5729 3.22893C16.5488 3.24914 16.5256 3.27043 16.5033 3.29275L2.99421 16.8557C2.41085 17.4414 2.08331 18.2344 2.08331 19.061V20.8251C2.08331 21.9725 3.01245 22.9166 4.17064 22.9166H5.9194C6.75036 22.9166 7.5471 22.5856 8.13351 21.9969L21.6392 8.43735ZM17.8946 6.06371C17.5041 5.67318 16.8709 5.67318 16.4804 6.06371C16.0898 6.45423 16.0898 7.0874 16.4804 7.47792L17.522 8.51959C17.9126 8.91011 18.5457 8.91011 18.9363 8.51959C19.3268 8.12907 19.3268 7.4959 18.9363 7.10538L17.8946 6.06371Z" fill="white"/>
</svg>
