<svg width="30" height="31" viewBox="0 0 30 31" fill="none" xmlns="http://www.w3.org/2000/svg">
<path fill-rule="evenodd" clip-rule="evenodd" d="M9.58175 27.8745H20.415C24.6529 27.8745 27.499 24.9019 27.499 20.4786V10.2704C27.499 5.84715 24.6529 2.87451 20.4163 2.87451H9.58175C5.34514 2.87451 2.49902 5.84715 2.49902 10.2704V20.4786C2.49902 24.9019 5.34514 27.8745 9.58175 27.8745ZM10.6219 14.1247C8.89863 14.1247 7.49836 12.7225 7.49836 10.9997C7.49836 9.27686 8.89863 7.8747 10.6219 7.8747C12.344 7.8747 13.7455 9.27686 13.7455 10.9997C13.7455 12.7225 12.344 14.1247 10.6219 14.1247ZM24.7746 19.0421C25.1931 20.1154 24.9757 21.4054 24.5282 22.4683C23.9977 23.7325 22.9821 24.6897 21.7025 25.1077C21.1344 25.2934 20.5386 25.3747 19.944 25.3747H9.40934C8.36103 25.3747 7.43338 25.1231 6.67292 24.6549C6.19652 24.3608 6.11231 23.6822 6.46552 23.2423C7.05629 22.507 7.63953 21.7692 8.22779 21.0248C9.34901 19.6007 10.1044 19.1879 10.9441 19.5504C11.2847 19.7 11.6266 19.9245 11.9786 20.1618C12.9163 20.7991 14.2198 21.675 15.9368 20.7243C17.1118 20.0662 17.7933 18.9373 18.3868 17.9543L18.3967 17.9379C18.4387 17.869 18.4803 17.8001 18.5218 17.7315L18.522 17.7312C18.7214 17.4012 18.9182 17.0756 19.1408 16.7756C19.4199 16.4002 20.4543 15.2263 21.7943 16.0622C22.6478 16.5886 23.3655 17.3006 24.1335 18.063C24.4264 18.3546 24.635 18.6861 24.7746 19.0421Z" fill="#BFC1C5"/>
</svg>
