<svg width="18" height="18" viewBox="0 0 18 18" fill="none" xmlns="http://www.w3.org/2000/svg">
<path fill-rule="evenodd" clip-rule="evenodd" d="M5.38783 17.3332H12.61C15.4353 17.3332 17.3327 15.3515 17.3327 12.4026V5.59717C17.3327 2.64833 15.4353 0.666565 12.6109 0.666565H5.38783C2.56343 0.666565 0.666016 2.64833 0.666016 5.59717V12.4026C0.666016 15.3515 2.56343 17.3332 5.38783 17.3332ZM6.08129 8.16669C4.93242 8.16669 3.99891 7.23191 3.99891 6.08336C3.99891 4.9348 4.93242 4.00002 6.08129 4.00002C7.22932 4.00002 8.16367 4.9348 8.16367 6.08336C8.16367 7.23191 7.22932 8.16669 6.08129 8.16669ZM15.5164 11.445C15.7954 12.1605 15.6504 13.0205 15.3521 13.7291C14.9985 14.5719 14.3214 15.21 13.4683 15.4887C13.0896 15.6125 12.6924 15.6667 12.296 15.6667H5.27289C4.57402 15.6667 3.95559 15.499 3.44861 15.1868C3.13102 14.9907 3.07487 14.5384 3.31034 14.2451C3.7042 13.7549 4.09302 13.263 4.48519 12.7668C5.23267 11.8173 5.7363 11.5422 6.29607 11.7838C6.52316 11.8836 6.75109 12.0332 6.98573 12.1914C7.61086 12.6163 8.47985 13.2002 9.62453 12.5664C10.4079 12.1277 10.8622 11.3751 11.2578 10.7198L11.2645 10.7088C11.2925 10.6628 11.3203 10.6169 11.348 10.571C11.481 10.351 11.6121 10.1339 11.7605 9.93396C11.9466 9.68371 12.6362 8.90111 13.5295 9.45839C14.0985 9.80927 14.577 10.284 15.089 10.7922C15.2842 10.9866 15.4234 11.2076 15.5164 11.445Z" fill="#91908F"/>
</svg>
