<svg width="22" height="22" viewBox="0 0 22 22" fill="none" xmlns="http://www.w3.org/2000/svg">
<path d="M18.8942 8.89531C18.8942 8.75572 18.8388 8.62186 18.7401 8.52316C18.6414 8.42446 18.5075 8.36901 18.3679 8.36901C18.2284 8.36901 18.0945 8.42446 17.9958 8.52316C17.8971 8.62186 17.8417 8.75572 17.8417 8.89531H18.8942ZM4.15835 8.89531C4.15835 8.75572 4.1029 8.62186 4.00421 8.52316C3.90551 8.42446 3.77165 8.36901 3.63207 8.36901C3.49249 8.36901 3.35863 8.42446 3.25993 8.52316C3.16124 8.62186 3.10579 8.75572 3.10579 8.89531H4.15835ZM20.1004 11.3731C20.1993 11.4719 20.3333 11.5274 20.4731 11.5274C20.6128 11.5274 20.7468 11.4719 20.8457 11.3731C20.9445 11.2743 21 11.1402 21 11.0005C21 10.8607 20.9445 10.7267 20.8457 10.6279L20.1004 11.3731ZM11 1.52723L11.3726 1.15462C11.3237 1.10561 11.2656 1.06672 11.2017 1.04019C11.1378 1.01366 11.0692 1 11 1C10.9308 1 10.8622 1.01366 10.7983 1.04019C10.7344 1.06672 10.6763 1.10561 10.6274 1.15462L11 1.52723ZM1.15434 10.6279C1.05552 10.7267 1 10.8607 1 11.0005C1 11.1402 1.05552 11.2743 1.15434 11.3731C1.25316 11.4719 1.38719 11.5274 1.52695 11.5274C1.6667 11.5274 1.80073 11.4719 1.89955 11.3731L1.15434 10.6279ZM5.73719 21H16.2628V19.9474H5.73719V21ZM18.8942 18.3685V8.89531H17.8417V18.3685H18.8942ZM4.15835 18.3685V8.89531H3.10579V18.3685H4.15835ZM20.8457 10.6279L11.3726 1.15462L10.6274 1.89985L20.1004 11.3731L20.8457 10.6279ZM10.6274 1.15462L1.15434 10.6279L1.89955 11.3731L11.3726 1.89985L10.6274 1.15462ZM16.2628 21C16.9607 21 17.63 20.7228 18.1235 20.2293C18.617 19.7358 18.8942 19.0665 18.8942 18.3685H17.8417C17.8417 18.7873 17.6753 19.1889 17.3792 19.485C17.0831 19.7811 16.6815 19.9474 16.2628 19.9474V21ZM5.73719 19.9474C5.31846 19.9474 4.91687 19.7811 4.62078 19.485C4.32469 19.1889 4.15835 18.7873 4.15835 18.3685H3.10579C3.10579 19.0665 3.38302 19.7358 3.87651 20.2293C4.36999 20.7228 5.0393 21 5.73719 21V19.9474Z" fill="#292826"/>
<path d="M18.8942 8.89531C18.8942 8.75572 18.8388 8.62186 18.7401 8.52316C18.6414 8.42446 18.5075 8.36901 18.3679 8.36901C18.2284 8.36901 18.0945 8.42446 17.9958 8.52316C17.8971 8.62186 17.8417 8.75572 17.8417 8.89531M18.8942 8.89531H17.8417M18.8942 8.89531V18.3685M17.8417 8.89531V18.3685M4.15835 8.89531C4.15835 8.75572 4.1029 8.62186 4.00421 8.52316C3.90551 8.42446 3.77165 8.36901 3.63207 8.36901C3.49249 8.36901 3.35863 8.42446 3.25993 8.52316C3.16124 8.62186 3.10579 8.75572 3.10579 8.89531M4.15835 8.89531H3.10579M4.15835 8.89531V18.3685M3.10579 8.89531V18.3685M20.1004 11.3731C20.1993 11.4719 20.3333 11.5274 20.4731 11.5274C20.6128 11.5274 20.7468 11.4719 20.8457 11.3731C20.9445 11.2743 21 11.1402 21 11.0005C21 10.8607 20.9445 10.7267 20.8457 10.6279M20.1004 11.3731L20.8457 10.6279M20.1004 11.3731L10.6274 1.89985L11.3726 1.15462M20.8457 10.6279L11.3726 1.15462M11.3726 1.15462L11 1.52723L10.6274 1.15462M11.3726 1.15462C11.3237 1.10561 11.2656 1.06672 11.2017 1.04019C11.1378 1.01366 11.0692 1 11 1C10.9308 1 10.8622 1.01366 10.7983 1.04019C10.7344 1.06672 10.6763 1.10561 10.6274 1.15462M10.6274 1.15462L1.15434 10.6279M10.6274 1.15462L11.3726 1.89985L1.89955 11.3731M1.15434 10.6279C1.05552 10.7267 1 10.8607 1 11.0005C1 11.1402 1.05552 11.2743 1.15434 11.3731C1.25316 11.4719 1.38719 11.5274 1.52695 11.5274C1.6667 11.5274 1.80073 11.4719 1.89955 11.3731M1.15434 10.6279L1.89955 11.3731M5.73719 21H16.2628M5.73719 21V19.9474M5.73719 21C5.0393 21 4.36999 20.7228 3.87651 20.2293C3.38302 19.7358 3.10579 19.0665 3.10579 18.3685M16.2628 21V19.9474M16.2628 21C16.9607 21 17.63 20.7228 18.1235 20.2293C18.617 19.7358 18.8942 19.0665 18.8942 18.3685M16.2628 19.9474H5.73719M16.2628 19.9474C16.6815 19.9474 17.0831 19.7811 17.3792 19.485C17.6753 19.1889 17.8417 18.7873 17.8417 18.3685M5.73719 19.9474C5.31846 19.9474 4.91687 19.7811 4.62078 19.485C4.32469 19.1889 4.15835 18.7873 4.15835 18.3685M18.8942 18.3685H17.8417M4.15835 18.3685H3.10579" stroke="#292826"/>
</svg>
