<svg width="20" height="20" viewBox="0 0 20 20" fill="none" xmlns="http://www.w3.org/2000/svg">
<path d="M17.1048 8.10577C17.1048 7.98015 17.0549 7.85967 16.9661 7.77084C16.8772 7.68202 16.7568 7.63211 16.6311 7.63211C16.5055 7.63211 16.385 7.68202 16.2962 7.77084C16.2074 7.85967 16.1575 7.98015 16.1575 8.10577H17.1048ZM3.84251 8.10577C3.84251 7.98015 3.79261 7.85967 3.70378 7.77084C3.61496 7.68202 3.49448 7.63211 3.36886 7.63211C3.24324 7.63211 3.12277 7.68202 3.03394 7.77084C2.94511 7.85967 2.89521 7.98015 2.89521 8.10577H3.84251ZM18.1904 10.3358C18.2793 10.4247 18.4 10.4747 18.5257 10.4747C18.6515 10.4747 18.7722 10.4247 18.8611 10.3358C18.95 10.2468 19 10.1262 19 10.0004C19 9.87464 18.95 9.75401 18.8611 9.66507L18.1904 10.3358ZM10 1.47451L10.3353 1.13916C10.2913 1.09505 10.2391 1.06005 10.1815 1.03617C10.124 1.01229 10.0623 1 10 1C9.9377 1 9.87601 1.01229 9.81846 1.03617C9.76092 1.06005 9.70865 1.09505 9.66465 1.13916L10 1.47451ZM1.1389 9.66507C1.04997 9.75401 1 9.87464 1 10.0004C1 10.1262 1.04997 10.2468 1.1389 10.3358C1.22784 10.4247 1.34847 10.4747 1.47425 10.4747C1.60003 10.4747 1.72066 10.4247 1.8096 10.3358L1.1389 9.66507ZM5.26347 19H14.7365V18.0527H5.26347V19ZM17.1048 16.6317V8.10577H16.1575V16.6317H17.1048ZM3.84251 16.6317V8.10577H2.89521V16.6317H3.84251ZM18.8611 9.66507L10.3353 1.13916L9.66465 1.80986L18.1904 10.3358L18.8611 9.66507ZM9.66465 1.13916L1.1389 9.66507L1.8096 10.3358L10.3353 1.80986L9.66465 1.13916ZM14.7365 19C15.3646 19 15.967 18.7505 16.4111 18.3063C16.8553 17.8622 17.1048 17.2598 17.1048 16.6317H16.1575C16.1575 17.0086 16.0078 17.37 15.7413 17.6365C15.4748 17.903 15.1134 18.0527 14.7365 18.0527V19ZM5.26347 18.0527C4.88661 18.0527 4.52518 17.903 4.2587 17.6365C3.99222 17.37 3.84251 17.0086 3.84251 16.6317H2.89521C2.89521 17.2598 3.14472 17.8622 3.58886 18.3063C4.03299 18.7505 4.63537 19 5.26347 19V18.0527Z" fill="#292826"/>
<path d="M17.1048 8.10578C17.1048 7.98015 17.0549 7.85967 16.9661 7.77085C16.8772 7.68202 16.7568 7.63211 16.6311 7.63211C16.5055 7.63211 16.385 7.68202 16.2962 7.77085C16.2074 7.85967 16.1575 7.98015 16.1575 8.10578M17.1048 8.10578H16.1575M17.1048 8.10578V16.6317M16.1575 8.10578V16.6317M3.84251 8.10578C3.84251 7.98015 3.79261 7.85967 3.70378 7.77085C3.61496 7.68202 3.49448 7.63211 3.36886 7.63211C3.24324 7.63211 3.12277 7.68202 3.03394 7.77085C2.94511 7.85967 2.89521 7.98015 2.89521 8.10578M3.84251 8.10578H2.89521M3.84251 8.10578V16.6317M2.89521 8.10578V16.6317M18.1904 10.3358C18.2793 10.4247 18.4 10.4747 18.5257 10.4747C18.6515 10.4747 18.7722 10.4247 18.8611 10.3358C18.95 10.2468 19 10.1262 19 10.0004C19 9.87464 18.95 9.75401 18.8611 9.66507M18.1904 10.3358L18.8611 9.66507M18.1904 10.3358L9.66465 1.80986L10.3353 1.13916M18.8611 9.66507L10.3353 1.13916M10.3353 1.13916L10 1.47451L9.66465 1.13916M10.3353 1.13916C10.2913 1.09505 10.2391 1.06005 10.1815 1.03617C10.124 1.01229 10.0623 1 10 1C9.9377 1 9.87601 1.01229 9.81846 1.03617C9.76092 1.06005 9.70865 1.09505 9.66465 1.13916M9.66465 1.13916L1.1389 9.66507M9.66465 1.13916L10.3353 1.80986L1.8096 10.3358M1.1389 9.66507C1.04997 9.75401 1 9.87464 1 10.0004C1 10.1262 1.04997 10.2468 1.1389 10.3358C1.22784 10.4247 1.34847 10.4747 1.47425 10.4747C1.60003 10.4747 1.72066 10.4247 1.8096 10.3358M1.1389 9.66507L1.8096 10.3358M5.26347 19H14.7365M5.26347 19V18.0527M5.26347 19C4.63537 19 4.03299 18.7505 3.58886 18.3063C3.14472 17.8622 2.89521 17.2598 2.89521 16.6317M14.7365 19V18.0527M14.7365 19C15.3646 19 15.967 18.7505 16.4111 18.3063C16.8553 17.8622 17.1048 17.2598 17.1048 16.6317M14.7365 18.0527H5.26347M14.7365 18.0527C15.1134 18.0527 15.4748 17.903 15.7413 17.6365C16.0078 17.37 16.1575 17.0086 16.1575 16.6317M5.26347 18.0527C4.88661 18.0527 4.52518 17.903 4.2587 17.6365C3.99222 17.37 3.84251 17.0086 3.84251 16.6317M17.1048 16.6317H16.1575M3.84251 16.6317H2.89521" stroke="#292826"/>
</svg>
