<svg width="18" height="21" viewBox="0 0 18 21" fill="none" xmlns="http://www.w3.org/2000/svg">
<path d="M12.4882 5.67039L12.4882 5.67025C12.5687 4.54721 12.2281 3.54252 11.5719 2.81155M12.4882 5.67039L6.42073 2.80315C7.06058 2.09155 7.96565 1.68909 9.00004 1.68909C10.0232 1.68909 10.9256 2.09153 11.5719 2.81155M12.4882 5.67039C12.319 8.03625 10.6096 9.68903 9.00004 9.68903C7.3898 9.68903 5.67817 8.03518 5.51156 5.67094L12.4882 5.67039ZM11.5719 2.81155L12.3104 2.14867L11.5719 2.81155ZM5.51154 5.67061C5.43167 4.52974 5.77297 3.52375 6.42067 2.80322L5.51154 5.67061Z" stroke="#292826" stroke-width="2"/>
<path d="M16.6283 19.689L16.6283 19.6891C16.674 19.6897 16.7202 19.6798 16.7641 19.659C16.8081 19.6381 16.8498 19.6061 16.8846 19.563L16.8855 19.5619C16.9672 19.4611 17.0269 19.287 16.9879 19.0647L16.9878 19.0642C16.6702 17.2461 15.6863 15.7222 14.1104 14.6382L16.6283 19.689ZM16.6283 19.689H16.6152M16.6283 19.689H16.6152M16.6152 19.689H1.38482V19.6889M16.6152 19.689L1.38482 19.6889M1.38482 19.6889L1.3714 19.6891M1.38482 19.6889L1.3714 19.6891M1.3714 19.6891C1.32575 19.6897 1.2795 19.6799 1.23563 19.6591C1.19164 19.6382 1.14996 19.6062 1.11512 19.5631L1.1145 19.5623M1.3714 19.6891L1.1145 19.5623M1.1145 19.5623C1.03281 19.4616 0.973113 19.2875 1.01206 19.0652L1.01215 19.0647M1.1145 19.5623L1.01215 19.0647M1.01215 19.0647C1.32981 17.2465 2.31375 15.7226 3.8898 14.6381L1.01215 19.0647ZM3.89009 14.6378C5.30254 13.6668 7.11759 13.1176 9 13.1176C10.8823 13.1176 12.6974 13.6672 14.11 14.6379L3.89009 14.6378Z" stroke="#292826" stroke-width="2"/>
</svg>
