<svg width="21" height="21" viewBox="0 0 21 21" fill="none" xmlns="http://www.w3.org/2000/svg">
<path d="M10.5 1C5.25383 1 1 5.25383 1 10.5C1 15.7462 5.25383 20 10.5 20C15.7462 20 20 15.7462 20 10.5C20 5.25383 15.7462 1 10.5 1Z" stroke="#292826" stroke-width="1.8" stroke-miterlimit="10"/>
<path d="M8.62378 9.40198H10.2885V15.0759" stroke="#292826" stroke-width="1.8" stroke-linecap="round" stroke-linejoin="round"/>
<path d="M8 15.2717H12.5779" stroke="#292826" stroke-width="1.8" stroke-miterlimit="10" stroke-linecap="round"/>
<path d="M10.0811 5C9.81356 5 9.55206 5.07459 9.32963 5.21433C9.1072 5.35407 8.93384 5.55269 8.83147 5.78507C8.7291 6.01745 8.70232 6.27315 8.75451 6.51984C8.80669 6.76654 8.93551 6.99314 9.12467 7.17099C9.31383 7.34885 9.55483 7.46997 9.8172 7.51904C10.0796 7.56811 10.3515 7.54293 10.5987 7.44667C10.8458 7.35042 11.0571 7.18742 11.2057 6.97828C11.3543 6.76914 11.4336 6.52327 11.4336 6.27174C11.4336 5.93445 11.2911 5.61098 11.0375 5.37248C10.7838 5.13399 10.4398 5 10.0811 5Z" fill="#292826"/>
</svg>
