<svg width="20" height="20" viewBox="0 0 20 20" fill="none" xmlns="http://www.w3.org/2000/svg">
<path fill-rule="evenodd" clip-rule="evenodd" d="M9.99899 0.000976562C4.47721 0.000976562 0 4.47819 0 9.99996C0 15.5217 4.47721 19.999 9.99899 19.999C15.5208 19.999 19.998 15.5217 19.998 9.99996C19.998 4.47819 15.5208 0.000976562 9.99899 0.000976562ZM1.8 9.99996C1.8 5.4723 5.47133 1.80098 9.99899 1.80098C14.5266 1.80098 18.198 5.4723 18.198 9.99996C18.198 14.5276 14.5266 18.199 9.99899 18.199C5.47133 18.199 1.8 14.5276 1.8 9.99996ZM9.80083 4.73247C9.54461 4.73247 9.29415 4.80391 9.08111 4.93775C8.86807 5.07159 8.70203 5.26183 8.60398 5.4844C8.50593 5.70697 8.48027 5.95188 8.53026 6.18816C8.58025 6.42444 8.70363 6.64148 8.8848 6.81183C9.06597 6.98217 9.2968 7.09818 9.54809 7.14518C9.79939 7.19218 10.0599 7.16806 10.2966 7.07587C10.5333 6.98368 10.7356 6.82755 10.878 6.62725C11.0203 6.42694 11.0963 6.19144 11.0963 5.95053C11.0963 5.62748 10.9598 5.31766 10.7169 5.08923C10.4739 4.8608 10.1444 4.73247 9.80083 4.73247ZM8.40576 8.04878C7.9087 8.04878 7.50576 8.45173 7.50576 8.94878C7.50576 9.44584 7.9087 9.84878 8.40576 9.84878H9.10017V13.6704H7.8081C7.31105 13.6704 6.9081 14.0733 6.9081 14.5704C6.9081 15.0674 7.31105 15.4704 7.8081 15.4704H12.1927C12.6898 15.4704 13.0927 15.0674 13.0927 14.5704C13.0927 14.0733 12.6898 13.6704 12.1927 13.6704H10.9002V8.94878C10.9002 8.45173 10.4972 8.04878 10.0002 8.04878H8.40576Z" fill="#292826"/>
</svg>
