<svg width="20" height="20" viewBox="0 0 20 20" fill="none" xmlns="http://www.w3.org/2000/svg">
<path d="M18 3H8.88L8 0H2C0.9 0 0 0.9 0 2V15C0 16.1 0.9 17 2 17H9L10 20H18C19.1 20 20 19.1 20 18V5C20 3.9 19.1 3 18 3ZM5.17 12.59C2.92 12.59 1.08 10.76 1.08 8.5C1.08 6.24 2.91 4.41 5.17 4.41C6.21 4.41 7.16 4.78 7.91 5.48L7.98 5.54L6.75 6.72L6.69 6.67C6.4 6.4 5.91 6.08 5.17 6.08C3.86 6.08 2.79 7.17 2.79 8.5C2.79 9.83 3.86 10.92 5.17 10.92C6.54 10.92 7.13 10.05 7.29 9.46H5.08V7.91H9.03L9.04 7.98C9.08 8.19 9.09 8.38 9.09 8.59C9.09 10.94 7.48 12.59 5.17 12.59ZM11.2 10.88C11.53 11.48 11.94 12.06 12.39 12.58L11.85 13.11L11.2 10.88ZM11.97 10.12H10.98L10.67 9.08H14.66C14.66 9.08 14.32 10.39 13.1 11.82C12.58 11.2 12.21 10.59 11.97 10.12ZM19 18C19 18.55 18.55 19 18 19H11L13 17L12.19 14.23L13.11 13.31L15.79 16L16.52 15.27L13.81 12.59C14.71 11.56 15.41 10.34 15.73 9.08H17V8.04H13.36V7H12.32V8.04H10.36L9.18 4H18C18.55 4 19 4.45 19 5V18Z" fill="#323232"/>
</svg>
