<svg width="18" height="22" viewBox="0 0 18 22" fill="none" xmlns="http://www.w3.org/2000/svg">
<path fill-rule="evenodd" clip-rule="evenodd" d="M2 9.64816C2 5.34909 5.20599 1.99951 9 1.99951C12.794 1.99951 16 5.34909 16 9.64816C16 11.7879 14.9988 13.7943 13.6472 15.5175C12.2219 17.3348 10.4857 18.7356 9.41871 19.5076C9.16321 19.6925 8.83679 19.6925 8.58129 19.5076C7.51428 18.7356 5.7781 17.3348 4.35276 15.5175C3.00122 13.7943 2 11.7879 2 9.64816ZM9 -0.000488281C3.95746 -0.000488281 0 4.3942 0 9.64816C0 12.4132 1.28584 14.848 2.77906 16.7518C4.36546 18.7744 6.26609 20.3011 7.40888 21.1279C8.36402 21.819 9.63598 21.819 10.5911 21.1279C11.7339 20.3011 13.6345 18.7744 15.2209 16.7518C16.7142 14.848 18 12.4132 18 9.64816C18 4.3942 14.0425 -0.000488281 9 -0.000488281ZM7 8.23145C7 7.12688 7.89543 6.23145 9 6.23145C10.1046 6.23145 11 7.12688 11 8.23145C11 9.33602 10.1046 10.2314 9 10.2314C7.89543 10.2314 7 9.33602 7 8.23145ZM9 4.23145C6.79086 4.23145 5 6.02231 5 8.23145C5 10.4406 6.79086 12.2314 9 12.2314C11.2091 12.2314 13 10.4406 13 8.23145C13 6.02231 11.2091 4.23145 9 4.23145Z" fill="#292826"/>
</svg>
