<svg width="20" height="25" viewBox="0 0 20 25" fill="none" xmlns="http://www.w3.org/2000/svg">
<path d="M9.91728 0.748779C6.69894 0.748779 4.08061 3.44014 4.08061 6.74824V9.14803H2.91328C1.62571 9.14803 0.578613 10.2243 0.578613 11.5478V22.3468C0.578613 23.6703 1.62571 24.7466 2.91328 24.7466H16.9213C18.2088 24.7466 19.2559 23.6703 19.2559 22.3468V11.5478C19.2559 10.2243 18.2088 9.14803 16.9213 9.14803H15.7539V6.74824C15.7539 3.44014 13.1356 0.748779 9.91728 0.748779ZM6.41528 6.74824C6.41528 4.76362 7.98651 3.14856 9.91728 3.14856C11.848 3.14856 13.4193 4.76362 13.4193 6.74824V9.14803H6.41528V6.74824ZM16.9236 22.3468H11.0846V19.6135C11.7792 19.1971 12.2519 18.4316 12.2519 17.5473C12.2519 16.2238 11.2048 15.1475 9.91728 15.1475C8.62971 15.1475 7.58261 16.2238 7.58261 17.5473C7.58261 18.4304 8.05538 19.1971 8.74995 19.6135V22.3468H2.91328V11.5478H16.9213L16.9236 22.3468Z" fill="#292826"/>
</svg>
