<svg width="28" height="28" viewBox="0 0 28 28" fill="none" xmlns="http://www.w3.org/2000/svg">
<rect width="28" height="28" fill="white"/>
<path d="M15.1663 17.5C15.1663 18.1443 14.644 18.6667 13.9997 18.6667C13.3553 18.6667 12.833 18.1443 12.833 17.5C12.833 16.8557 13.3553 16.3333 13.9997 16.3333C14.644 16.3333 15.1663 16.8557 15.1663 17.5Z" stroke="#323232" stroke-width="2"/>
<path d="M17.5003 10.5C19.7002 10.5 20.8002 10.5 21.4836 11.1834C22.167 11.8668 22.167 12.9668 22.167 15.1667L22.167 17.5L22.167 19.8333C22.167 22.0332 22.167 23.1332 21.4836 23.8166C20.8002 24.5 19.7002 24.5 17.5003 24.5L14.0003 24.5L10.5003 24.5C8.30044 24.5 7.20049 24.5 6.51707 23.8166C5.83366 23.1332 5.83366 22.0332 5.83366 19.8333L5.83366 17.5L5.83366 15.1667C5.83366 12.9668 5.83366 11.8668 6.51708 11.1834C7.20049 10.5 8.30044 10.5 10.5003 10.5L14.0003 10.5L17.5003 10.5Z" stroke="#323232" stroke-width="2" stroke-linejoin="round"/>
<path d="M10.5 10.5V5.83333C10.5 4.54467 11.5447 3.5 12.8333 3.5H15.1667C16.4553 3.5 17.5 4.54467 17.5 5.83333V10.5" stroke="#323232" stroke-width="2" stroke-linecap="round" stroke-linejoin="round"/>
</svg>
