<svg width="27" height="19" viewBox="0 0 27 19" fill="none" xmlns="http://www.w3.org/2000/svg">
<path d="M11.9912 5.25V3.125C11.9912 2.56141 12.2228 2.02091 12.635 1.6224C13.0472 1.22388 13.6064 1 14.1894 1H22.9822C23.5652 1 24.1243 1.22388 24.5366 1.6224C24.9488 2.02091 25.1804 2.56141 25.1804 3.125L25.1804 15.875C25.1804 16.4386 24.9488 16.9791 24.5366 17.3776C24.1243 17.7761 23.5652 18 22.9822 18H14.629C13.4151 18 11.9912 17.0485 11.9912 15.875V13.75" stroke="#292826" stroke-width="2" stroke-linecap="round" stroke-linejoin="round"/>
<path d="M5.35059 4.88696L0.999961 9.25793L5.35059 13.6289" stroke="#292826" stroke-width="2" stroke-linecap="round" stroke-linejoin="round"/>
<path d="M15.792 9.25757L1.86999 9.25757" stroke="#292826" stroke-width="2" stroke-linecap="round" stroke-linejoin="round"/>
</svg>
