<svg width="20" height="16" viewBox="0 0 20 16" fill="none" xmlns="http://www.w3.org/2000/svg">
<path fill-rule="evenodd" clip-rule="evenodd" d="M4 -0.000488281H3.96802H3.96797C3.52934 -0.000499965 3.15087 -0.000510044 2.83762 0.0208627C2.50779 0.0433667 2.17788 0.0928705 1.85195 0.227874C1.11687 0.532356 0.532845 1.11638 0.228363 1.85146C0.0933588 2.17739 0.043855 2.5073 0.021351 2.83713C-2.17631e-05 3.15038 -1.16833e-05 3.52885 0 3.96748V3.96753V3.99951V11.9995V12.0315V12.0315C-1.16833e-05 12.4702 -2.17631e-05 12.8486 0.021351 13.1619C0.043855 13.4917 0.0933588 13.8216 0.228363 14.1476C0.532845 14.8826 1.11687 15.4667 1.85195 15.7712C2.17788 15.9062 2.50779 15.9557 2.83762 15.9782C3.15085 15.9995 3.52931 15.9995 3.96792 15.9995H3.96801H4H16H16.032H16.0321C16.4707 15.9995 16.8491 15.9995 17.1624 15.9782C17.4922 15.9557 17.8221 15.9062 18.1481 15.7712C18.8831 15.4667 19.4672 14.8826 19.7716 14.1476C19.9066 13.8216 19.9561 13.4917 19.9787 13.1619C20 12.8486 20 12.4702 20 12.0315V11.9995V3.99951V3.96752C20 3.52887 20 3.15039 19.9787 2.83713C19.9561 2.5073 19.9066 2.17739 19.7716 1.85146C19.4672 1.11638 18.8831 0.532356 18.1481 0.227874C17.8221 0.0928705 17.4922 0.0433667 17.1624 0.0208627C16.8491 -0.000510044 16.4707 -0.000499965 16.032 -0.000488281H16.032H16H4ZM2.00325 3.33113C2.00017 3.51127 2 3.72819 2 3.99951V11.9995C2 12.4791 2.00054 12.7888 2.01671 13.0258C2.03227 13.2538 2.05888 13.3406 2.07612 13.3822C2.17762 13.6272 2.37229 13.8219 2.61732 13.9234C2.65893 13.9406 2.74576 13.9672 2.97376 13.9828C3.21074 13.999 3.52038 13.9995 4 13.9995H16C16.4796 13.9995 16.7893 13.999 17.0262 13.9828C17.2542 13.9672 17.3411 13.9406 17.3827 13.9234C17.6277 13.8219 17.8224 13.6272 17.9239 13.3822C17.9411 13.3406 17.9677 13.2538 17.9833 13.0258C17.9995 12.7888 18 12.4791 18 11.9995V3.99951C18 3.72819 17.9998 3.51127 17.9968 3.33113L11.9755 8.59971C10.8444 9.5894 9.15557 9.5894 8.02449 8.59971L2.00325 3.33113ZM16.4802 2.00059C16.3413 1.99959 16.183 1.99951 16 1.99951H4C3.817 1.99951 3.65874 1.99959 3.51982 2.00059L9.3415 7.09455C9.71852 7.42445 10.2815 7.42445 10.6585 7.09455L16.4802 2.00059Z" fill="#292826"/>
</svg>
