<svg width="20" height="25" viewBox="0 0 20 25" fill="none" xmlns="http://www.w3.org/2000/svg">
<path d="M9.89703 24.1332C11.2579 24.1332 12.3713 23.0446 12.3713 21.7141H7.42277C7.42277 22.3557 7.68345 22.971 8.14747 23.4247C8.61148 23.8783 9.24082 24.1332 9.89703 24.1332ZM17.3198 16.8757V10.8278C17.3198 7.11441 15.2909 4.00579 11.7527 3.18327V2.36076C11.7527 1.35681 10.9238 0.546387 9.89703 0.546387C8.87021 0.546387 8.04134 1.35681 8.04134 2.36076V3.18327C4.49078 4.00579 2.47426 7.10232 2.47426 10.8278V16.8757L0 19.2949V20.5045H19.7941V19.2949L17.3198 16.8757Z" fill="#E7E3E0"/>
</svg>
