<svg width="18" height="22" viewBox="0 0 18 22" fill="none" xmlns="http://www.w3.org/2000/svg">
<path d="M9 0C5.89838 0 3.375 2.4673 3.375 5.5V7.7H2.25C1.00912 7.7 0 8.6867 0 9.9V19.8C0 21.0133 1.00912 22 2.25 22H15.75C16.9909 22 18 21.0133 18 19.8V9.9C18 8.6867 16.9909 7.7 15.75 7.7H14.625V5.5C14.625 2.4673 12.1016 0 9 0ZM5.625 5.5C5.625 3.6806 7.13925 2.2 9 2.2C10.8608 2.2 12.375 3.6806 12.375 5.5V7.7H9H5.625V5.5ZM15.7522 19.8H10.125V17.2942C10.7944 16.9125 11.25 16.2107 11.25 15.4C11.25 14.1867 10.2409 13.2 9 13.2C7.75912 13.2 6.75 14.1867 6.75 15.4C6.75 16.2096 7.20562 16.9125 7.875 17.2942V19.8H2.25V9.9H15.75L15.7522 19.8Z" fill="#292826"/>
</svg>
