<svg width="26" height="27" viewBox="0 0 26 27" fill="none" xmlns="http://www.w3.org/2000/svg">
<path d="M20.2281 22.9116L22.8538 20.2102C23.1746 19.8805 23.3547 19.4391 23.3547 18.9724C23.3547 18.5057 23.1771 18.0643 22.8538 17.7346L20.0283 14.8252C19.7075 14.4954 19.2756 14.3102 18.8216 14.3102C18.365 14.3102 17.9381 14.4929 17.6148 14.8252L15.4013 17.0979C14.2277 16.5801 13.1614 15.8362 12.2599 14.9063C11.3493 13.9754 10.6312 12.8872 10.1229 11.6798L12.3364 9.4071C12.6572 9.07735 12.8374 8.636 12.8374 8.16927C12.8382 7.93906 12.7943 7.711 12.7083 7.49845C12.6223 7.28589 12.4958 7.09313 12.3364 6.93144L9.51089 4.01949C9.19009 3.68974 8.75824 3.50458 8.30418 3.50458C7.84765 3.50458 7.42074 3.68721 7.09747 4.01949L4.47183 6.71837C3.924 7.28148 3.6106 8.05766 3.6106 8.85414C3.6106 9.01901 3.62293 9.17881 3.65008 9.34115C4.18804 12.6995 5.92777 16.0325 8.54355 18.7238C11.1643 21.4125 14.4068 23.1983 17.6765 23.7563C18.6044 23.9161 19.5594 23.5965 20.2281 22.9116ZM17.9702 21.9579C15.0608 21.4633 12.1587 19.8551 9.80208 17.4327C7.44542 15.0103 5.88089 12.0299 5.39969 9.03931C5.33799 8.6639 5.46138 8.27834 5.72542 8.0044L8.30418 5.35371L11.0409 8.1642L8.07962 11.203L8.05741 11.2258L8.25482 11.7737C8.84903 13.4349 9.78757 14.9435 11.0054 16.1949C12.2232 17.4462 13.6912 18.4104 15.3075 19.0206L15.8406 19.2235L18.8191 16.1594L21.5558 18.9699L18.977 21.6205C18.7105 21.8945 18.3354 22.0213 17.9702 21.9579Z" fill="#292826" stroke="#292826" stroke-width="0.5"/>
</svg>
