<svg width="22" height="22" viewBox="0 0 22 22" fill="none" xmlns="http://www.w3.org/2000/svg">
<path d="M17.8592 19.966L20.4968 17.326C20.819 17.0038 21 16.5724 21 16.1163C21 15.6602 20.8215 15.2289 20.4968 14.9066L17.6584 12.0633C17.3362 11.7411 16.9024 11.5601 16.4463 11.5601C15.9877 11.5601 15.5588 11.7386 15.2341 12.0633L13.0105 14.2844C11.8316 13.7784 10.7604 13.0514 9.85489 12.1426C8.94018 11.2329 8.21882 10.1694 7.70817 8.98948L9.93173 6.76839C10.254 6.44614 10.4349 6.01481 10.4349 5.55869C10.4358 5.33371 10.3917 5.11083 10.3053 4.90311C10.2189 4.69539 10.0919 4.507 9.93173 4.34899L7.0934 1.50322C6.77114 1.18096 6.33734 0.999999 5.88122 0.999999C5.42262 0.999999 4.99378 1.17848 4.66904 1.50322L2.0315 4.14076C1.48118 4.69108 1.16636 5.44962 1.16636 6.22799C1.16636 6.38912 1.17876 6.54529 1.20603 6.70394C1.74642 9.986 3.49404 13.2433 6.12167 15.8734C8.75426 18.501 12.0115 20.2462 15.2961 20.7915C16.2281 20.9477 17.1875 20.6353 17.8592 19.966ZM15.5911 19.034C12.6684 18.5506 9.75325 16.979 7.38591 14.6116C5.01856 12.2443 3.44695 9.33157 2.96356 6.40895C2.90159 6.04207 3.02553 5.66528 3.29078 5.39756L5.88122 2.80711L8.63031 5.55373L5.65564 8.52345L5.63333 8.54576L5.83164 9.0812C6.42855 10.7047 7.37133 12.179 8.59467 13.4019C9.818 14.6248 11.2926 15.5671 12.9163 16.1634L13.4518 16.3617L16.4438 13.3672L19.1929 16.1138L16.6024 18.7043C16.3347 18.972 15.9579 19.0959 15.5911 19.034Z" fill="#292826" stroke="#292826" stroke-width="0.5"/>
</svg>
