<svg width="25" height="25" viewBox="0 0 25 25" fill="none" xmlns="http://www.w3.org/2000/svg">
<path fill-rule="evenodd" clip-rule="evenodd" d="M22.9997 14.8124V9.6736C22.9997 8.29515 22.9273 7.11239 22.7076 6.12407C22.4852 5.12326 22.0975 4.25571 21.4207 3.57897C20.744 2.90223 19.8765 2.51449 18.8757 2.29207C17.8874 2.07242 16.7046 2 15.3262 2H8.6735C7.29507 2 6.11232 2.07242 5.12401 2.29207C4.12322 2.51449 3.25568 2.90223 2.57895 3.57897C1.90222 4.25571 1.51448 5.12326 1.29207 6.12407C1.07242 7.11239 1 8.29515 1 9.6736V16.3264C1 17.7048 1.07242 18.8876 1.29207 19.8759C1.51448 20.8767 1.90222 21.7443 2.57895 22.421C3.25568 23.0978 4.12322 23.4855 5.12401 23.7079C6.11232 23.9276 7.29507 24 8.6735 24H15.3262C16.7046 24 17.8874 23.9276 18.8757 23.7079C19.8765 23.4855 20.744 23.0978 21.4207 22.421C22.0975 21.7443 22.4852 20.8767 22.7076 19.8759C22.9273 18.8876 22.9997 17.7048 22.9997 16.3264V14.8637C23.0001 14.8466 23.0001 14.8295 22.9997 14.8124ZM3.43964 6.60136C3.27257 7.35309 3.19997 8.34537 3.19997 9.6736V12.0055C3.99182 11.2442 4.72896 10.6212 5.44278 10.167C6.30773 9.61659 7.19534 9.27731 8.15238 9.27731C9.10942 9.27731 9.99704 9.61659 10.862 10.167C11.7161 10.7105 12.6037 11.4957 13.5784 12.4704L15.3661 14.2581C16.4477 13.3665 17.5084 12.7508 18.6499 12.6086C19.4018 12.5149 20.111 12.634 20.7997 12.9118V9.6736C20.7997 8.34537 20.7271 7.35309 20.5601 6.60136C20.3958 5.86211 20.1551 5.4246 19.8651 5.13461C19.5752 4.84462 19.1376 4.60396 18.3984 4.43967C17.6467 4.27261 16.6544 4.2 15.3262 4.2H8.6735C7.34528 4.2 6.35302 4.27261 5.60129 4.43967C4.86206 4.60396 4.42455 4.84462 4.13457 5.13461C3.84458 5.4246 3.60393 5.86211 3.43964 6.60136Z" fill="#292826"/>
<path fill-rule="evenodd" clip-rule="evenodd" d="M15 9C15 7.89543 15.8954 7 17 7C18.1046 7 19 7.89543 19 9C19 10.1046 18.1046 11 17 11C15.8954 11 15 10.1046 15 9Z" fill="#292826"/>
</svg>
