<svg width="60" height="60" viewBox="0 0 60 60" fill="none" xmlns="http://www.w3.org/2000/svg">
<rect width="60" height="60" rx="10" fill="#E77728"/>
<path d="M23.3334 30.238L27.5 34.4047L36.6667 25.238" stroke="white" stroke-width="3" stroke-linecap="round"/>
<path d="M30 50C32.8219 50 35.1889 48.0519 35.8292 45.4271C35.9266 45.0279 36.4355 44.8171 36.7867 45.0305C39.0955 46.4337 42.1467 46.1376 44.1421 44.1422C46.1375 42.1467 46.4337 39.0955 45.0304 36.7867C44.817 36.4355 45.0278 35.9267 45.427 35.8293C48.0518 35.1889 50 32.822 50 30C50 27.178 48.0518 24.8111 45.4271 24.1708C45.0279 24.0734 44.8171 23.5645 45.0305 23.2133C46.4337 20.9045 46.1376 17.8533 44.1422 15.8579C42.1467 13.8624 39.0955 13.5663 36.7867 14.9695C36.4355 15.183 35.9267 14.9722 35.8293 14.573C35.1889 11.9482 32.822 10 30 10C27.1781 10 24.8111 11.9482 24.1708 14.5729C24.0734 14.9721 23.5645 15.1829 23.2133 14.9695C20.9045 13.5663 17.8533 13.8624 15.8579 15.8578C13.8624 17.8533 13.5663 20.9045 14.9695 23.2133C15.183 23.5645 14.9722 24.0733 14.573 24.1707C11.9482 24.8111 10 27.178 10 30C10 32.8219 11.9481 35.1889 14.5729 35.8292C14.9721 35.9266 15.1829 36.4355 14.9695 36.7867C13.5663 39.0954 13.8624 42.1467 15.8578 44.1421C17.8533 46.1375 20.9045 46.4337 23.2133 45.0304C23.5645 44.817 24.0733 45.0278 24.1707 45.427C24.8111 48.0518 27.178 50 30 50Z" stroke="white" stroke-width="3" stroke-linecap="round"/>
</svg>
