<svg width="22" height="22" viewBox="0 0 22 22" fill="none" xmlns="http://www.w3.org/2000/svg">
<path d="M19.2275 13.0339L19.1799 12.5605L19.1656 12.5615L19.1494 12.5644L19.2275 13.0339ZM19.2275 13.0339L19.2752 13.5082L19.2913 13.5063L19.3066 13.5035L19.2275 13.0339ZM15.3797 18.2551L15.6817 17.8865L15.6769 17.8837L15.3797 18.2551ZM15.3797 18.2551L15.0778 18.6237L15.0826 18.6275L15.3797 18.2551ZM6.62122 18.2551L6.3193 17.8875L6.31263 17.8932L6.30501 17.8999L6.62122 18.2551ZM6.62122 18.2551L6.92314 18.6246L6.93076 18.618L6.93743 18.6123L6.62122 18.2551ZM2.77247 8.96514V8.48893H2.74961L2.7258 8.49083L2.77247 8.96514ZM2.77247 8.96514V9.44135H2.79628L2.82009 9.4385L2.77247 8.96514ZM13.5073 2.72389C13.493 2.5512 13.473 2.37904 13.4473 2.20768C13.4255 2.05605 13.3798 1.90883 13.312 1.77147L12.4653 2.20863C12.4748 2.22768 12.491 2.26577 12.5072 2.36483C12.5253 2.46959 12.5386 2.60579 12.5605 2.81818L13.5073 2.72389ZM13.6939 3.86966C13.6825 3.85537 13.6482 3.79728 13.6111 3.59346C13.5668 3.30488 13.5334 3.01485 13.5092 2.72389L12.5605 2.81818C12.5986 3.2001 12.6301 3.51631 12.6739 3.76204C12.7167 4.00205 12.7834 4.24682 12.9368 4.44778L13.6939 3.86966ZM14.1359 4.05253C14.0526 4.06373 13.9679 4.05271 13.8903 4.0206C13.8127 3.98848 13.7449 3.93641 13.6939 3.86966L12.9358 4.44683C13.0888 4.6474 13.2921 4.80389 13.5251 4.90042C13.7581 4.99694 14.0126 5.03005 14.2625 4.99638L14.1359 4.05253ZM15.0769 3.37345C14.7673 3.62774 14.5559 3.80013 14.3892 3.91538C14.2187 4.03348 14.153 4.04967 14.1359 4.05253L14.2625 4.99638C14.5121 4.96305 14.7321 4.83733 14.933 4.69732C15.1378 4.55446 15.3826 4.35445 15.6807 4.11062L15.0769 3.37345ZM15.8883 2.83914C15.7359 2.88771 15.6074 2.96486 15.4855 3.05153C15.3673 3.13534 15.2331 3.24582 15.0769 3.37345L15.6807 4.11062C15.8455 3.97538 15.9521 3.88871 16.0379 3.82775C16.0804 3.79346 16.128 3.7668 16.1788 3.7468L15.8883 2.83914ZM16.8912 2.88866C16.5739 2.75134 16.2176 2.73375 15.8883 2.83914L16.1788 3.7468C16.2884 3.71211 16.4068 3.71724 16.5122 3.76299L16.8912 2.88866ZM17.6456 3.50202C17.5027 3.35916 17.3798 3.23534 17.2712 3.1401C17.1586 3.0368 17.0304 2.95194 16.8912 2.88866L16.5122 3.76299C16.5322 3.77156 16.5684 3.79156 16.6446 3.85823C16.7236 3.92681 16.8208 4.02395 16.9722 4.17539L17.6456 3.50202ZM18.4961 4.35254L17.6456 3.50202L16.9722 4.17539L17.8227 5.02591L18.4961 4.35254ZM19.1094 5.10686C19.0458 4.9677 18.9606 4.83945 18.857 4.72684C18.7618 4.61827 18.638 4.4954 18.4961 4.35254L17.8227 5.02591C17.9741 5.17734 18.0703 5.27449 18.1408 5.35354C18.2075 5.42974 18.2265 5.46593 18.2351 5.48593L19.1094 5.10686ZM19.159 6.10977C19.2643 5.78049 19.2467 5.42416 19.1094 5.10686L18.2351 5.48593C18.2805 5.59145 18.2863 5.70985 18.2513 5.81928L19.159 6.10977ZM18.6246 6.92123C18.7523 6.76504 18.8628 6.63074 18.9466 6.51264C19.0323 6.39073 19.1104 6.26216 19.159 6.10977L18.2513 5.81928C18.2316 5.87009 18.2043 5.91762 18.1703 5.96024C18.0796 6.08207 17.9853 6.20117 17.8875 6.3174L18.6246 6.92123ZM17.9456 7.86223C17.9484 7.84509 17.9646 7.77937 18.0827 7.60889C18.198 7.44221 18.3703 7.23077 18.6246 6.92123L17.8875 6.3174C17.6437 6.61551 17.4427 6.86028 17.3008 7.06505C17.1608 7.26506 17.035 7.48602 17.0017 7.73556L17.9456 7.86223ZM18.1284 8.30416C18.0617 8.25317 18.0096 8.18543 17.9775 8.10782C17.9454 8.0302 17.9344 7.94548 17.9456 7.86223L17.0017 7.73556C16.9682 7.98538 17.0014 8.23962 17.0979 8.47246C17.1944 8.70531 17.3509 8.90847 17.5513 9.06134L18.1284 8.30416ZM19.2742 8.48988C18.8751 8.44988 18.6046 8.42321 18.4046 8.38702C18.2008 8.34987 18.1427 8.31559 18.1284 8.30416L17.5513 9.06134C17.7513 9.21373 17.996 9.28039 18.237 9.32421C18.4818 9.36802 18.797 9.4004 19.1799 9.4385L19.2742 8.48988ZM20.2266 8.68608C20.0893 8.61828 19.942 8.57263 19.7904 8.55084C19.6476 8.52702 19.4742 8.50988 19.2742 8.48988L19.179 9.43754C19.3923 9.45945 19.5285 9.47278 19.6333 9.49088C19.6871 9.49694 19.7398 9.51107 19.7895 9.53279L20.2266 8.68608ZM20.9 9.42992C20.7729 9.10872 20.5336 8.84446 20.2266 8.68608L19.7895 9.53279C19.8919 9.58544 19.9717 9.67342 20.0142 9.78042L20.9 9.42992ZM21 10.3966C21 10.1957 21 10.0214 20.9905 9.87661C20.9841 9.72388 20.9535 9.57312 20.9 9.42992L20.0142 9.78042C20.0219 9.80042 20.0333 9.84042 20.04 9.94042C20.0474 10.0927 20.0499 10.2452 20.0476 10.3976L21 10.3966ZM21 11.6005V10.3966L20.0476 10.3976V11.6005H21ZM20.9 12.5663C20.959 12.4177 20.981 12.2691 20.9905 12.1196C21 11.9758 21 11.8015 21 11.6005H20.0476C20.0476 11.8138 20.0476 11.951 20.04 12.0567C20.0395 12.111 20.0308 12.165 20.0142 12.2167L20.9 12.5663ZM20.2266 13.3111C20.5338 13.1524 20.773 12.8878 20.9 12.5663L20.0142 12.2167C19.9717 12.3237 19.8919 12.4117 19.7895 12.4644L20.2266 13.3111ZM19.2742 13.5073C19.4742 13.4873 19.6485 13.4692 19.7904 13.4454C19.938 13.4215 20.0838 13.3844 20.2257 13.312L19.7895 12.4644C19.7398 12.4861 19.6871 12.5002 19.6333 12.5063C19.5285 12.5244 19.3923 12.5386 19.1799 12.5605L19.2742 13.5073ZM18.1294 13.693C18.1437 13.6816 18.2018 13.6463 18.4056 13.6101C18.6056 13.5739 18.8761 13.5463 19.2742 13.5073L19.1799 12.5605C18.798 12.5986 18.4818 12.6282 18.2361 12.6729C17.996 12.7158 17.7522 12.7825 17.5513 12.9349L18.1294 13.693ZM17.9456 14.1349C17.9345 14.0516 17.9456 13.9668 17.9779 13.8892C18.0102 13.8116 18.0625 13.7439 18.1294 13.693L17.5513 12.9349C17.3507 13.0878 17.1942 13.2911 17.0977 13.5242C17.0012 13.7572 16.968 14.0116 17.0017 14.2616L17.9456 14.1349ZM18.6246 15.0759C18.4362 14.853 18.2554 14.6236 18.0827 14.3883C17.9646 14.2187 17.9484 14.1521 17.9456 14.1349L17.0027 14.2625C17.036 14.5121 17.1617 14.7311 17.3008 14.9321C17.4436 15.1359 17.6437 15.3816 17.8875 15.6788L18.6246 15.0759ZM19.159 15.8874C19.1098 15.7424 19.0382 15.6062 18.9466 15.4835C18.8435 15.3443 18.7362 15.2084 18.6246 15.0759L17.8875 15.6788C18.0227 15.8445 18.1094 15.9502 18.1703 16.0369C18.2042 16.0792 18.2315 16.1264 18.2513 16.1769L19.159 15.8874ZM19.1094 16.8903C19.2467 16.573 19.2643 16.2167 19.159 15.8874L18.2513 16.1769C18.2865 16.2866 18.2808 16.4054 18.2351 16.5112L19.1094 16.8903ZM18.497 17.6437C18.6389 17.5017 18.7618 17.3789 18.857 17.2703C18.9561 17.157 19.0456 17.0379 19.1094 16.8903L18.2351 16.5112C18.2102 16.5596 18.1781 16.6039 18.1399 16.6426C18.0374 16.755 17.9317 16.8643 17.8227 16.9703L18.497 17.6437ZM17.6456 18.4951L18.497 17.6437L17.8227 16.9703L16.9722 17.8218L17.6456 18.4951ZM16.8912 19.1075C17.0379 19.0437 17.1579 18.9551 17.2712 18.8561C17.3798 18.7608 17.5027 18.638 17.6456 18.4951L16.9722 17.8218C16.8208 17.9732 16.7236 18.0694 16.6446 18.1389C16.6055 18.1772 16.5609 18.2093 16.5122 18.2342L16.8912 19.1075ZM15.8883 19.158C16.2177 19.2631 16.5741 19.2452 16.8912 19.1075L16.5122 18.2342C16.4066 18.2796 16.2882 18.2853 16.1788 18.2503L15.8883 19.158ZM15.0769 18.6227C15.2331 18.7504 15.3673 18.8609 15.4855 18.9447C15.6074 19.0313 15.7359 19.1094 15.8883 19.158L16.1788 18.2503C16.128 18.2307 16.0805 18.2034 16.0379 18.1694C15.916 18.0784 15.7969 17.9837 15.6807 17.8856L15.0769 18.6227ZM14.1359 17.9446C14.153 17.9465 14.2197 17.9637 14.3892 18.0818C14.5559 18.197 14.7673 18.3694 15.0769 18.6227L15.6807 17.8856C15.3826 17.6427 15.1378 17.4417 14.933 17.2989C14.733 17.1598 14.5121 17.0341 14.2625 17.0008L14.1359 17.9446ZM13.6939 18.1275C13.7449 18.0607 13.8127 18.0087 13.8903 17.9765C13.9679 17.9444 14.0526 17.9334 14.1359 17.9446L14.2625 17.0008C14.0128 16.9672 13.7586 17.0002 13.5258 17.0966C13.2929 17.1929 13.0897 17.3491 12.9368 17.5494L13.6939 18.1275ZM13.5082 19.2733C13.5482 18.8742 13.5749 18.6037 13.6111 18.4037C13.6482 18.1999 13.6825 18.1418 13.6939 18.1275L12.9368 17.5494C12.7844 17.7494 12.7177 17.9951 12.6739 18.2351C12.6301 18.4799 12.5977 18.7951 12.5596 19.178L13.5082 19.2733ZM13.312 20.2257C13.3854 20.0828 13.4215 19.9371 13.4463 19.7895C13.4711 19.6466 13.4882 19.4733 13.5082 19.2733L12.5596 19.178C12.5464 19.3299 12.5295 19.4814 12.5072 19.6323C12.5012 19.6862 12.487 19.7388 12.4653 19.7885L13.312 20.2257ZM12.5682 20.899C12.8894 20.7719 13.1536 20.5327 13.312 20.2257L12.4653 19.7885C12.4127 19.8909 12.3247 19.9708 12.2177 20.0133L12.5682 20.899ZM11.6015 20.999C11.8024 20.999 11.9767 20.999 12.1215 20.9895C12.2701 20.98 12.4196 20.9581 12.5682 20.899L12.2177 20.0133C12.1659 20.0299 12.112 20.0385 12.0577 20.039C11.9529 20.0466 11.8148 20.0466 11.6005 20.0466L11.6015 20.999ZM10.3976 20.999H11.6015L11.6005 20.0466H10.3976V20.999ZM9.43088 20.899C9.58041 20.9581 9.72899 20.98 9.87852 20.9895C10.0223 20.999 10.1966 20.999 10.3976 20.999V20.0466C10.1842 20.0466 10.0471 20.0466 9.94138 20.039C9.88705 20.0385 9.83311 20.0298 9.78137 20.0133L9.43088 20.899ZM8.68703 20.2257C8.84541 20.5327 9.10967 20.7719 9.43088 20.899L9.78137 20.0133C9.67437 19.9708 9.58639 19.8909 9.53374 19.7885L8.68703 20.2257ZM8.49083 19.2733C8.51083 19.4733 8.52893 19.6476 8.55179 19.7895C8.57655 19.9371 8.6137 20.0828 8.68703 20.2257L9.53374 19.7885C9.51202 19.7388 9.4979 19.6862 9.49183 19.6323C9.46952 19.4818 9.45173 19.3306 9.4385 19.179L8.49083 19.2733ZM8.30511 18.1275C8.31654 18.1418 8.35083 18.1999 8.38797 18.4037C8.42416 18.6037 8.45083 18.8751 8.49083 19.2733L9.4385 19.179C9.4004 18.797 9.36897 18.4808 9.32516 18.2351C9.2823 17.9951 9.21563 17.7503 9.06229 17.5494L8.30511 18.1275ZM7.86318 17.9446C7.94643 17.9334 8.03115 17.9444 8.10877 17.9765C8.18638 18.0087 8.25412 18.0607 8.30511 18.1275L9.06229 17.5494C8.90942 17.3489 8.70626 17.1935 8.47341 17.097C8.24057 17.0005 7.98633 16.9673 7.73651 17.0008L7.86318 17.9446ZM6.92219 18.6237C7.23172 18.3694 7.44316 18.197 7.60984 18.0818C7.78032 17.9637 7.84604 17.9465 7.86318 17.9446L7.73651 17.0008C7.48698 17.0341 7.26696 17.1598 7.066 17.2998C6.86123 17.4417 6.61646 17.6427 6.31835 17.8865L6.92219 18.6237ZM6.11072 19.158C6.26311 19.1094 6.39169 19.0323 6.5136 18.9456C6.6317 18.8618 6.76599 18.7513 6.92219 18.6237L6.31835 17.8865C6.20213 17.9843 6.08302 18.0787 5.96119 18.1694C5.91859 18.2034 5.87106 18.2307 5.82023 18.2503L6.11072 19.158ZM5.10781 19.1094C5.42511 19.2468 5.78144 19.2634 6.11072 19.158L5.82023 18.2503C5.7108 18.2853 5.59241 18.2796 5.48688 18.2342L5.10781 19.1094ZM4.35349 18.4951C4.49636 18.638 4.61922 18.7618 4.7278 18.857C4.84018 18.9551 4.96114 19.0456 5.10781 19.1094L5.48688 18.2342C5.43817 18.2093 5.39353 18.1772 5.35449 18.1389C5.24217 18.0365 5.13291 17.9307 5.02686 17.8218L4.35349 18.4951ZM3.50298 17.6446L4.35349 18.4951L5.02686 17.8218L4.17634 16.9712L3.50298 17.6446ZM2.88961 16.8903C2.95343 17.037 3.04295 17.157 3.14201 17.2703C3.23725 17.3789 3.36106 17.5017 3.50298 17.6446L4.17634 16.9712C4.06708 16.8652 3.961 16.7559 3.85823 16.6436C3.81996 16.6046 3.78785 16.5599 3.76299 16.5112L2.88961 16.8903ZM2.84009 15.8874C2.7347 16.2167 2.7523 16.573 2.88961 16.8903L3.76299 16.5112C3.71724 16.4058 3.71306 16.2874 3.74775 16.1779L2.84009 15.8874ZM3.3744 15.0759C3.24677 15.2321 3.13629 15.3664 3.05248 15.4845C2.96098 15.6068 2.8893 15.7428 2.84009 15.8874L3.74775 16.1779C3.76775 16.127 3.79441 16.0795 3.82871 16.0369C3.88966 15.9512 3.97633 15.8445 4.11158 15.6797L3.3744 15.0759ZM4.05348 14.1349C4.05062 14.1521 4.03443 14.2178 3.91633 14.3883C3.80013 14.5549 3.6287 14.7664 3.3744 15.0759L4.11158 15.6797C4.3554 15.3816 4.55636 15.1369 4.69827 14.9321C4.83828 14.7321 4.964 14.5111 4.99733 14.2616L4.05348 14.1349ZM3.87061 13.693C3.93736 13.744 3.98943 13.8117 4.02155 13.8893C4.05366 13.9669 4.06468 14.0517 4.05348 14.1349L4.99733 14.2616C5.03083 14.0118 4.99763 13.7575 4.90112 13.5247C4.8046 13.2918 4.6482 13.0887 4.44778 12.9358L3.87061 13.693ZM2.72484 13.5082C3.12391 13.5473 3.3944 13.5739 3.59441 13.6101C3.79823 13.6473 3.85633 13.6816 3.87061 13.693L4.44778 12.9358C4.24777 12.7834 4.003 12.7158 3.76204 12.6729C3.51726 12.6291 3.20201 12.5967 2.81913 12.5586L2.72484 13.5082ZM1.77242 13.3111C1.91528 13.3844 2.061 13.4206 2.20863 13.4454C2.35149 13.4701 2.52388 13.4882 2.72484 13.5082L2.82009 12.5596C2.66815 12.5464 2.51665 12.5286 2.36578 12.5063C2.31191 12.5002 2.25925 12.4861 2.20958 12.4644L1.77242 13.3111ZM1.09905 12.5663C1.226 12.8878 1.46524 13.1524 1.77242 13.3111L2.20958 12.4644C2.10718 12.4117 2.02733 12.3237 1.98481 12.2167L1.09905 12.5663ZM1 11.6024C1 11.8034 1 11.9777 1.00952 12.1224C1.01569 12.2749 1.04624 12.4254 1.1 12.5682L1.98576 12.2186C1.9692 12.1669 1.96053 12.1129 1.96005 12.0586C1.95297 11.9063 1.95043 11.7539 1.95243 11.6015L1 11.6024ZM1 10.3985V11.6024L1.95243 11.6015V10.3985H1ZM1.1 9.43088C1.04644 9.57439 1.01591 9.72642 1.00952 9.87947C1 10.0233 1 10.1976 1 10.3985H1.95243C1.95243 10.1852 1.95243 10.048 1.96005 9.94233C1.96051 9.888 1.96918 9.83406 1.98576 9.78232L1.1 9.43088ZM1.77337 8.68703C1.46636 8.84541 1.22714 9.10967 1.1 9.43088L1.98576 9.78232C2.02828 9.67532 2.10814 9.58735 2.21053 9.53469L1.77337 8.68703ZM2.7258 8.49083C2.52579 8.51083 2.35149 8.52988 2.20958 8.55274C2.05796 8.57454 1.91073 8.61923 1.77337 8.68703L2.21053 9.53469C2.22958 9.52517 2.26768 9.50898 2.36673 9.49279C2.4715 9.47469 2.6077 9.4604 2.82009 9.4385L2.7258 8.49083ZM3.87157 8.30511C3.85728 8.31654 3.79918 8.35178 3.59536 8.38892C3.39535 8.42512 3.12486 8.45083 2.7258 8.49083L2.82009 9.4385C3.20201 9.4004 3.51917 9.36992 3.76394 9.32611C4.0049 9.28325 4.24968 9.21658 4.44969 9.06324L3.87157 8.30511ZM4.05443 7.86414C4.06563 7.94738 4.05462 8.03211 4.0225 8.10972C3.99038 8.18733 3.93831 8.25412 3.87157 8.30511L4.44969 9.06324C4.64993 8.91027 4.80615 8.70706 4.90249 8.47422C4.99884 8.24138 5.03189 7.98625 4.99829 7.73651L4.05443 7.86414ZM3.37535 6.92219C3.62965 7.23268 3.80204 7.44412 3.91823 7.61079C4.03633 7.78128 4.05157 7.84699 4.05443 7.86414L4.99829 7.73651C4.96495 7.48698 4.83923 7.26792 4.69922 7.06696C4.55731 6.86218 4.35635 6.61741 4.11253 6.3193L3.37535 6.92219ZM2.84104 6.11072C2.88866 6.26311 2.96676 6.39264 3.05343 6.51455C3.13724 6.6317 3.24773 6.76694 3.37535 6.92219L4.11253 6.3193C4.01471 6.20276 3.92038 6.08334 3.82966 5.96119C3.79545 5.91892 3.76784 5.87172 3.74775 5.82118L2.84104 6.11072ZM2.89057 5.10877C2.75348 5.42578 2.73589 5.78173 2.84104 6.11072L3.74775 5.82118C3.71306 5.71164 3.71915 5.59324 3.76489 5.48783L2.89057 5.10877ZM3.50393 4.35445C3.36106 4.49636 3.23725 4.61922 3.14201 4.72875C3.03872 4.8414 2.95386 4.96965 2.89057 5.10877L3.76489 5.48783C3.78983 5.43947 3.82194 5.3942 3.86014 5.35545C3.96217 5.24272 4.06795 5.13345 4.17729 5.02781L3.50393 4.35445ZM4.35445 3.50298L3.50393 4.35445L4.17729 5.02781L5.02781 4.17634L4.35445 3.50298ZM5.10877 2.89057C4.96969 2.95393 4.84145 3.03878 4.72875 3.14201C4.62017 3.23725 4.49636 3.36011 4.35445 3.50298L5.02781 4.17634C5.17925 4.02586 5.27639 3.92871 5.35545 3.85918C5.43164 3.79251 5.46783 3.77347 5.48783 3.76394L5.10877 2.89057ZM6.11167 2.84009C5.78228 2.735 5.42595 2.75294 5.10877 2.89057L5.48783 3.76394C5.59324 3.7182 5.71164 3.71306 5.82118 3.74775L6.11167 2.84009ZM6.92314 3.37535C6.76694 3.24773 6.63265 3.13724 6.51455 3.05343C6.39232 2.96155 6.25636 2.88955 6.11167 2.84009L5.82118 3.74775C5.87199 3.76746 5.91952 3.79475 5.96214 3.82871C6.04786 3.89061 6.15453 3.97728 6.32025 4.11253L6.92314 3.37535ZM7.86414 4.05443C7.84699 4.05157 7.78127 4.03538 7.61079 3.91728C7.3754 3.74428 7.14604 3.56417 6.92314 3.37535L6.32025 4.11253C6.61741 4.35635 6.86314 4.55731 7.06696 4.69922C7.26696 4.83828 7.48793 4.964 7.73746 4.99829L7.86414 4.05443ZM8.30606 3.87061C8.25518 3.93753 8.18749 3.98979 8.10987 4.02208C8.03225 4.05436 7.94747 4.06553 7.86414 4.05443L7.73746 4.99829C7.98735 5.03206 8.24172 4.99815 8.47475 4.9018C8.70777 4.80544 8.91114 4.64913 9.06419 4.44874L8.30606 3.87061ZM8.49179 2.7258C8.45178 3.12391 8.42512 3.39535 8.38892 3.59441C8.35178 3.79823 8.31749 3.85633 8.30606 3.87061L9.06419 4.44874C9.21658 4.24873 9.28325 4.00395 9.32611 3.76299C9.36992 3.51822 9.4023 3.20296 9.4404 2.82009L8.49179 2.7258ZM8.68798 1.77337C8.61465 1.91623 8.5775 2.06196 8.55274 2.20958C8.52893 2.35245 8.51179 2.52483 8.49179 2.7258L9.43945 2.82104C9.45266 2.6691 9.47045 2.5176 9.49278 2.36673C9.49879 2.31285 9.51292 2.26019 9.53469 2.21053L8.68798 1.77337ZM9.43278 1.1C9.11106 1.22719 8.84642 1.46583 8.68798 1.77337L9.53469 2.21053C9.58735 2.10814 9.67532 2.02828 9.78232 1.98576L9.43278 1.1ZM10.3985 1C10.1976 1 10.0233 1 9.87852 1.00952C9.72606 1.01569 9.57558 1.04624 9.43278 1.1L9.78232 1.98576C9.83406 1.96918 9.888 1.96051 9.94233 1.96005C10.0471 1.95243 10.1852 1.95243 10.3995 1.95243L10.3985 1ZM11.6024 1H10.3985L10.3995 1.95243H11.6024V1ZM12.5691 1.1C12.4256 1.04643 12.2745 1.01589 12.1215 1.00952C11.9777 1 11.8034 1 11.6024 1V1.95243C11.8158 1.95243 11.9529 1.95243 12.0586 1.96005C12.1129 1.96081 12.1668 1.96948 12.2186 1.98576L12.5691 1.1ZM13.313 1.77337C13.1544 1.46619 12.8907 1.22695 12.5691 1.1L12.2186 1.98576C12.3256 2.02828 12.4136 2.10718 12.4663 2.20958L13.313 1.77337ZM14.334 10.9995C14.334 11.8836 13.9828 12.7315 13.3576 13.3567C12.7325 13.9818 11.8846 14.333 11.0005 14.333V15.2854C12.1372 15.2854 13.2273 14.8339 14.0311 14.0301C14.8348 13.2264 15.2864 12.1362 15.2864 10.9995H14.334ZM11.0005 7.66603C11.8846 7.66603 12.7325 8.01724 13.3576 8.64239C13.9828 9.26754 14.334 10.1154 14.334 10.9995H15.2864C15.2864 9.86283 14.8348 8.77269 14.0311 7.96892C13.2273 7.16516 12.1372 6.71361 11.0005 6.71361V7.66603ZM7.66698 10.9995C7.66698 10.1154 8.01819 9.26754 8.64334 8.64239C9.26849 8.01724 10.1164 7.66603 11.0005 7.66603V6.71361C9.86378 6.71361 8.77364 7.16516 7.96987 7.96892C7.16611 8.77269 6.71456 9.86283 6.71456 10.9995H7.66698ZM11.0005 14.333C10.1164 14.333 9.26849 13.9818 8.64334 13.3567C8.01819 12.7315 7.66698 11.8836 7.66698 10.9995H6.71456C6.71456 12.1362 7.16611 13.2264 7.96987 14.0301C8.77364 14.8339 9.86378 15.2854 11.0005 15.2854V14.333Z" fill="#292826"/>
<path d="M13.0349 2.77151L13.5092 2.72389M13.5092 2.72389C13.5334 3.01485 13.5668 3.30488 13.6111 3.59346C13.6482 3.79728 13.6825 3.85537 13.6939 3.86966M13.5092 2.72389L12.5605 2.81818M12.8901 1.99052L12.4663 2.20958M12.4663 2.20958C12.4136 2.10718 12.3256 2.02828 12.2186 1.98576M12.4663 2.20958L13.313 1.77337C13.1544 1.46619 12.8907 1.22695 12.5691 1.1M13.3158 4.1592L13.6949 3.87061M14.2006 4.52493L14.1368 4.05348M15.3797 3.74394L15.6817 4.11158M16.034 3.29344L16.1788 3.7468M16.1788 3.7468C16.128 3.7668 16.0804 3.79346 16.0379 3.82775C15.9521 3.88871 15.8455 3.97538 15.6807 4.11062M16.1788 3.7468L15.8883 2.83914M16.1788 3.7468C16.2884 3.71211 16.4068 3.71724 16.5122 3.76299M16.7027 3.32678L16.8922 2.88961M17.3093 3.83918L16.9731 4.17634M18.1608 4.69065L18.497 4.35349M18.6732 5.29735L19.1104 5.10781M18.7066 5.96595L19.1599 6.11072M18.257 6.62027L17.8884 6.31835M17.4741 7.80032L17.0027 7.73651M17.8408 8.68418L17.5522 9.06229M19.2285 8.96514L19.2761 8.49083M20.0095 9.10991L20.2276 8.68703M20.4571 9.60612L20.9009 9.43088M20.4581 12.3929L20.0152 12.2177M20.0085 12.8882L20.2276 13.312M19.2275 13.0339L19.1799 12.5605M19.2275 13.0339L19.1494 12.5644L19.1656 12.5615L19.1799 12.5605M19.2275 13.0339L19.2752 13.5082L19.2913 13.5063L19.3066 13.5035L19.2275 13.0339ZM19.1799 12.5605C19.3923 12.5386 19.5285 12.5244 19.6333 12.5063C19.6871 12.5002 19.7398 12.4861 19.7895 12.4644M19.1799 12.5605L19.2742 13.5073M19.1799 12.5605C18.798 12.5986 18.4818 12.6282 18.2361 12.6729C17.996 12.7158 17.7522 12.7825 17.5513 12.9349M17.8408 13.3149L17.5522 12.9358M17.4751 14.1997L17.0027 14.2625M17.0027 14.2625L17.9456 14.1349M17.0027 14.2625C17.036 14.5121 17.1617 14.7311 17.3008 14.9321C17.4436 15.1359 17.6436 15.3816 17.8875 15.6788M18.257 15.3788L17.8884 15.6797M18.7066 16.0331L18.2522 16.1779M18.6732 16.7017L18.2361 16.5122M18.1608 17.3084L18.498 17.6446M17.3093 18.1589L16.9731 17.8227M16.7027 18.6713L16.8931 19.1094M16.034 18.7047L15.8893 19.159M15.3797 18.2551L15.6817 17.8865L15.6769 17.8837L15.3797 18.2551ZM15.3797 18.2551L15.0778 18.6237L15.0826 18.6275L15.3797 18.2551ZM14.2006 17.4741L14.2635 17.0017M13.3158 17.8398L13.6949 18.1284M13.0349 19.2266L12.5615 19.179M12.8901 20.0076L12.4663 19.7895M12.3939 20.4571L12.2186 20.0142M9.60708 20.4571L9.78232 20.0142M9.11181 20.0076L9.53469 19.7895M8.96609 19.2266L8.49179 19.2742M8.68513 17.8398L8.30606 18.1284M7.80128 17.4741L7.73746 17.0017M6.62122 18.2551L6.3193 17.8875L6.31263 17.8932L6.30501 17.8999L6.62122 18.2551ZM6.62122 18.2551L6.92314 18.6246L6.93076 18.618L6.93743 18.6123L6.62122 18.2551ZM5.9669 18.7056L6.11167 19.159M5.2983 18.6723L5.10781 19.1094M5.10781 19.1094C5.42511 19.2468 5.78144 19.2634 6.11072 19.158M5.10781 19.1094L5.48688 18.2342M5.10781 19.1094C4.96114 19.0456 4.84018 18.9551 4.7278 18.857C4.61922 18.7618 4.49636 18.638 4.35349 18.4951M4.6916 18.1599L5.02781 17.8227M3.84013 17.3084L3.50393 17.6456M3.32773 16.7017L3.76489 16.5131M3.29439 16.0331L3.74775 16.1779M3.74775 16.1779C3.71306 16.2874 3.71724 16.4058 3.76299 16.5112M3.74775 16.1779L2.84009 15.8874M3.74775 16.1779C3.76775 16.127 3.79441 16.0795 3.82871 16.0369C3.88966 15.9512 3.97633 15.8445 4.11158 15.6797M3.74394 15.3788L4.11253 15.6807M4.52588 14.1987L4.99829 14.2625M4.16015 13.3149L4.44874 12.9368M2.77247 13.0339L2.72484 13.5082M2.72484 13.5082C3.12391 13.5473 3.3944 13.5739 3.59441 13.6101C3.79823 13.6473 3.85633 13.6816 3.87061 13.693M2.72484 13.5082L2.81913 12.5586C3.20201 12.5967 3.51726 12.6291 3.76204 12.6729C4.003 12.7158 4.24777 12.7834 4.44778 12.9358M2.72484 13.5082C2.52388 13.4882 2.35149 13.4701 2.20863 13.4454C2.061 13.4206 1.91528 13.3844 1.77242 13.3111M2.72484 13.5082L2.82009 12.5596C2.66815 12.5464 2.51665 12.5286 2.36578 12.5063C2.31191 12.5002 2.25925 12.4861 2.20958 12.4644M1.99148 12.8891L2.21053 12.4653M1.54384 12.3929L1.1 12.5682M1.1 12.5682C1.04624 12.4254 1.01569 12.2749 1.00952 12.1224C1 11.9777 1 11.8034 1 11.6024M1.1 12.5682L1.98576 12.2186C1.9692 12.1669 1.96053 12.1129 1.96005 12.0586C1.95297 11.9063 1.95043 11.7539 1.95243 11.6015M1.54384 9.60612L1.1 9.43088M1.1 9.43088C1.04644 9.57439 1.01591 9.72642 1.00952 9.87947C1 10.0233 1 10.1976 1 10.3985M1.1 9.43088L1.98576 9.78232M1.1 9.43088C1.22714 9.10967 1.46636 8.84541 1.77337 8.68703M1.99148 9.11086L1.77337 8.68703M1.77337 8.68703L2.21053 9.53469M1.77337 8.68703C1.91073 8.61923 2.05796 8.57454 2.20958 8.55274C2.35149 8.52988 2.52579 8.51083 2.7258 8.49083M2.77247 8.96514V8.48893H2.74961L2.7258 8.49083M2.77247 8.96514L2.7258 8.49083M2.77247 8.96514V9.44135H2.79628L2.82009 9.4385M2.77247 8.96514L2.82009 9.4385M2.7258 8.49083L2.82009 9.4385M2.7258 8.49083C3.12486 8.45083 3.39535 8.42512 3.59536 8.38892C3.79918 8.35178 3.85728 8.31654 3.87157 8.30511M2.82009 9.4385C2.6077 9.4604 2.4715 9.47469 2.36673 9.49279C2.26768 9.50898 2.22958 9.52517 2.21053 9.53469M2.82009 9.4385C3.20201 9.4004 3.51917 9.36992 3.76394 9.32611C4.0049 9.28325 4.24968 9.21658 4.44969 9.06324M4.16015 8.68418L3.87157 8.30511M3.87157 8.30511L4.44969 9.06324M3.87157 8.30511C3.93831 8.25412 3.99038 8.18733 4.0225 8.10972C4.05462 8.03211 4.06563 7.94738 4.05443 7.86414M4.52683 7.80032L4.99829 7.73651M4.99829 7.73651C5.03189 7.98625 4.99884 8.24138 4.90249 8.47422C4.80615 8.70706 4.64993 8.91027 4.44969 9.06324M4.99829 7.73651L4.05443 7.86414M4.99829 7.73651C4.96495 7.48698 4.83923 7.26792 4.69922 7.06696C4.55731 6.86218 4.35635 6.61741 4.11253 6.3193M3.74299 6.61836L4.11158 6.3174M3.29344 5.96405L3.7468 5.81928M3.32678 5.29544L2.88961 5.10686M3.83918 4.68875L4.17634 5.02591M4.69065 3.83823L4.35349 3.50107M5.29735 3.32582L5.10781 2.88771M5.96595 3.29249L6.11072 2.83818M6.62027 3.74204L6.92219 3.37345M7.79937 4.52398L7.86318 4.05253M8.68513 4.15729L8.30511 3.86871M8.96514 2.77056L9.4385 2.81818M9.10991 1.98957L8.68703 1.77242M9.60612 1.54098L9.78137 1.98386M12.3929 1.54098L12.5682 1.0981M12.5605 2.81818C12.5386 2.60579 12.5253 2.46959 12.5072 2.36483C12.491 2.26577 12.4748 2.22768 12.4653 2.20863L13.312 1.77147C13.3798 1.90883 13.4255 2.05605 13.4473 2.20768C13.473 2.37904 13.493 2.5512 13.5073 2.72389L12.5605 2.81818ZM12.5605 2.81818C12.5986 3.2001 12.6301 3.51631 12.6739 3.76204C12.7167 4.00205 12.7834 4.24682 12.9368 4.44778L13.6939 3.86966M13.6939 3.86966C13.7449 3.93641 13.8127 3.98848 13.8903 4.0206C13.9679 4.05271 14.0526 4.06373 14.1359 4.05253M13.6939 3.86966L12.9358 4.44683C13.0888 4.6474 13.2921 4.80389 13.5251 4.90042C13.7581 4.99694 14.0126 5.03005 14.2625 4.99638M14.1359 4.05253L14.2625 4.99638M14.1359 4.05253C14.153 4.04967 14.2187 4.03348 14.3892 3.91538C14.5559 3.80013 14.7673 3.62774 15.0769 3.37345M14.2625 4.99638C14.5121 4.96305 14.7321 4.83733 14.933 4.69732C15.1378 4.55446 15.3826 4.35445 15.6807 4.11062M15.0769 3.37345L15.6807 4.11062M15.0769 3.37345C15.2331 3.24582 15.3673 3.13534 15.4855 3.05153C15.6074 2.96486 15.7359 2.88771 15.8883 2.83914M15.8883 2.83914C16.2176 2.73375 16.5739 2.75134 16.8912 2.88866M16.8912 2.88866L16.5122 3.76299M16.8912 2.88866C17.0304 2.95194 17.1586 3.0368 17.2712 3.1401C17.3798 3.23534 17.5027 3.35916 17.6456 3.50202M16.5122 3.76299C16.5322 3.77156 16.5684 3.79156 16.6446 3.85823C16.7236 3.92681 16.8208 4.02395 16.9722 4.17539M17.6456 3.50202L16.9722 4.17539M17.6456 3.50202L18.4961 4.35254M16.9722 4.17539L17.8227 5.02591M18.4961 4.35254L17.8227 5.02591M18.4961 4.35254C18.638 4.4954 18.7618 4.61827 18.857 4.72684C18.9606 4.83945 19.0458 4.9677 19.1094 5.10686M17.8227 5.02591C17.9741 5.17734 18.0703 5.27449 18.1408 5.35354C18.2075 5.42973 18.2265 5.46593 18.2351 5.48593M19.1094 5.10686L18.2351 5.48593M19.1094 5.10686C19.2468 5.42416 19.2643 5.78049 19.159 6.10977M18.2351 5.48593C18.2805 5.59145 18.2863 5.70985 18.2513 5.81928M19.159 6.10977L18.2513 5.81928M19.159 6.10977C19.1104 6.26216 19.0323 6.39073 18.9466 6.51264C18.8628 6.63074 18.7523 6.76504 18.6246 6.92123M18.2513 5.81928C18.2316 5.87009 18.2043 5.91762 18.1703 5.96024C18.0796 6.08207 17.9853 6.20117 17.8875 6.3174M18.6246 6.92123L17.8875 6.3174M18.6246 6.92123C18.3703 7.23077 18.198 7.44221 18.0827 7.60889C17.9646 7.77937 17.9484 7.84509 17.9456 7.86223M17.8875 6.3174C17.6436 6.61551 17.4427 6.86028 17.3008 7.06505C17.1608 7.26506 17.035 7.48602 17.0017 7.73556M17.9456 7.86223L17.0017 7.73556M17.9456 7.86223C17.9344 7.94548 17.9454 8.0302 17.9775 8.10782C18.0096 8.18543 18.0617 8.25317 18.1284 8.30416M17.0017 7.73556C16.9682 7.98538 17.0014 8.23962 17.0979 8.47246C17.1944 8.70531 17.3509 8.90847 17.5513 9.06134M18.1284 8.30416L17.5513 9.06134M18.1284 8.30416C18.1427 8.31559 18.2008 8.34987 18.4046 8.38702C18.6046 8.42321 18.8751 8.44988 19.2742 8.48988M17.5513 9.06134C17.7513 9.21372 17.996 9.28039 18.237 9.32421C18.4818 9.36802 18.797 9.4004 19.1799 9.4385L19.2742 8.48988M19.2742 8.48988C19.4742 8.50988 19.6476 8.52702 19.7904 8.55084C19.942 8.57263 20.0893 8.61828 20.2266 8.68608M19.2742 8.48988L19.179 9.43754C19.3923 9.45945 19.5285 9.47278 19.6333 9.49088C19.6871 9.49694 19.7398 9.51107 19.7895 9.53279M20.2266 8.68608L19.7895 9.53279M20.2266 8.68608C20.5336 8.84446 20.7729 9.10872 20.9 9.42992M19.7895 9.53279C19.8919 9.58544 19.9717 9.67342 20.0142 9.78042M20.9 9.42992L20.0142 9.78042M20.9 9.42992C20.9535 9.57312 20.9841 9.72388 20.9905 9.87661C21 10.0214 21 10.1957 21 10.3966M20.0142 9.78042C20.0219 9.80042 20.0333 9.84042 20.04 9.94042C20.0474 10.0927 20.0499 10.2452 20.0476 10.3976M21 10.3966L20.0476 10.3976M21 10.3966V11.6005M20.0476 10.3976V11.6005M21 11.6005H20.0476M21 11.6005C21 11.8015 21 11.9758 20.9905 12.1196C20.981 12.2691 20.959 12.4177 20.9 12.5663M20.0476 11.6005C20.0476 11.8138 20.0476 11.951 20.04 12.0567C20.0395 12.111 20.0308 12.165 20.0142 12.2167M20.9 12.5663L20.0142 12.2167M20.9 12.5663C20.773 12.8878 20.5338 13.1524 20.2266 13.3111L19.7895 12.4644M20.0142 12.2167C19.9717 12.3237 19.8919 12.4117 19.7895 12.4644M19.7895 12.4644L20.2257 13.312C20.0838 13.3844 19.938 13.4215 19.7904 13.4454C19.6485 13.4692 19.4742 13.4873 19.2742 13.5073M19.2742 13.5073C18.8761 13.5463 18.6056 13.5739 18.4056 13.6101C18.2018 13.6463 18.1437 13.6816 18.1294 13.693M19.3056 13.5025L19.1485 12.5634M18.1294 13.693L17.5513 12.9349M18.1294 13.693C18.0625 13.7439 18.0102 13.8116 17.9779 13.8892C17.9456 13.9668 17.9345 14.0516 17.9456 14.1349M17.5513 12.9349C17.3507 13.0878 17.1942 13.2911 17.0977 13.5242C17.0012 13.7572 16.968 14.0116 17.0017 14.2616L17.9456 14.1349M17.9456 14.1349C17.9484 14.1521 17.9646 14.2187 18.0827 14.3883C18.2554 14.6236 18.4362 14.853 18.6246 15.0759M18.6246 15.0759L17.8875 15.6788M18.6246 15.0759C18.7362 15.2084 18.8435 15.3443 18.9466 15.4835C19.0382 15.6062 19.1098 15.7424 19.159 15.8874M17.8875 15.6788C18.0227 15.8445 18.1094 15.9502 18.1703 16.0369C18.2042 16.0792 18.2315 16.1264 18.2513 16.1769M19.159 15.8874L18.2513 16.1769M19.159 15.8874C19.2643 16.2167 19.2468 16.573 19.1094 16.8903M18.2513 16.1769C18.2865 16.2866 18.2808 16.4054 18.2351 16.5112M19.1094 16.8903L18.2351 16.5112M19.1094 16.8903C19.0456 17.0379 18.9561 17.157 18.857 17.2703C18.7618 17.3789 18.6389 17.5017 18.497 17.6437M18.2351 16.5112C18.2102 16.5596 18.1781 16.6039 18.1399 16.6426C18.0374 16.755 17.9317 16.8643 17.8227 16.9703M18.497 17.6437L17.8227 16.9703M18.497 17.6437L17.6456 18.4951M17.8227 16.9703L16.9722 17.8218M17.6456 18.4951L16.9722 17.8218M17.6456 18.4951C17.5027 18.638 17.3798 18.7608 17.2712 18.8561C17.1579 18.9551 17.0379 19.0437 16.8912 19.1075M16.9722 17.8218C16.8208 17.9732 16.7236 18.0694 16.6446 18.1389C16.6055 18.1772 16.5609 18.2093 16.5122 18.2342M16.8912 19.1075L16.5122 18.2342M16.8912 19.1075C16.5741 19.2452 16.2177 19.2631 15.8883 19.158M16.5122 18.2342C16.4066 18.2796 16.2882 18.2853 16.1788 18.2503M15.8883 19.158L16.1788 18.2503M15.8883 19.158C15.7359 19.1094 15.6074 19.0313 15.4855 18.9447C15.3673 18.8609 15.2331 18.7504 15.0769 18.6227M16.1788 18.2503C16.128 18.2307 16.0805 18.2034 16.0379 18.1694C15.916 18.0784 15.7969 17.9837 15.6807 17.8856M15.0769 18.6227L15.6807 17.8856M15.0769 18.6227C14.7673 18.3694 14.5559 18.197 14.3892 18.0818C14.2197 17.9637 14.153 17.9465 14.1359 17.9446M15.6807 17.8856C15.3826 17.6427 15.1378 17.4417 14.933 17.2989C14.733 17.1598 14.5121 17.0341 14.2625 17.0008M15.0816 18.6266L15.6759 17.8827M14.1359 17.9446L14.2625 17.0008M14.1359 17.9446C14.0526 17.9334 13.9679 17.9444 13.8903 17.9765C13.8127 18.0087 13.7449 18.0607 13.6939 18.1275M14.2625 17.0008C14.0128 16.9672 13.7586 17.0002 13.5258 17.0966C13.2929 17.1929 13.0897 17.3491 12.9368 17.5494M13.6939 18.1275L12.9368 17.5494M13.6939 18.1275C13.6825 18.1418 13.6482 18.1999 13.6111 18.4037C13.5749 18.6037 13.5482 18.8742 13.5082 19.2733M12.9368 17.5494C12.7844 17.7494 12.7177 17.9951 12.6739 18.2351C12.6301 18.4799 12.5977 18.7951 12.5596 19.178M13.5082 19.2733L12.5596 19.178M13.5082 19.2733C13.4882 19.4733 13.4711 19.6466 13.4463 19.7895C13.4215 19.9371 13.3854 20.0828 13.312 20.2257M12.5596 19.178C12.5464 19.3299 12.5295 19.4814 12.5072 19.6323C12.5012 19.6862 12.487 19.7388 12.4653 19.7885M13.312 20.2257L12.4653 19.7885M13.312 20.2257C13.1536 20.5327 12.8894 20.7719 12.5682 20.899M12.4653 19.7885C12.4127 19.8909 12.3247 19.9708 12.2177 20.0133M12.5682 20.899L12.2177 20.0133M12.5682 20.899C12.4196 20.9581 12.2701 20.98 12.1215 20.9895C11.9767 20.999 11.8024 20.999 11.6015 20.999M12.2177 20.0133C12.1659 20.0299 12.112 20.0385 12.0577 20.039C11.9529 20.0466 11.8148 20.0466 11.6005 20.0466M11.6015 20.999L11.6005 20.0466M11.6015 20.999H10.3976M11.6005 20.0466H10.3976M10.3976 20.999V20.0466M10.3976 20.999C10.1966 20.999 10.0223 20.999 9.87852 20.9895C9.72899 20.98 9.58041 20.9581 9.43088 20.899M10.3976 20.0466C10.1842 20.0466 10.0471 20.0466 9.94138 20.039C9.88705 20.0385 9.83311 20.0298 9.78137 20.0133M9.43088 20.899L9.78137 20.0133M9.43088 20.899C9.10967 20.7719 8.84541 20.5327 8.68703 20.2257M9.78137 20.0133C9.67437 19.9708 9.58639 19.8909 9.53374 19.7885M8.68703 20.2257L9.53374 19.7885M8.68703 20.2257C8.6137 20.0828 8.57655 19.9371 8.55179 19.7895C8.52893 19.6476 8.51083 19.4733 8.49083 19.2733M9.53374 19.7885C9.51202 19.7388 9.4979 19.6862 9.49183 19.6323C9.46952 19.4818 9.45173 19.3306 9.4385 19.179M8.49083 19.2733L9.4385 19.179M8.49083 19.2733C8.45083 18.8751 8.42416 18.6037 8.38797 18.4037C8.35083 18.1999 8.31654 18.1418 8.30511 18.1275M9.4385 19.179C9.4004 18.797 9.36897 18.4808 9.32516 18.2351C9.2823 17.9951 9.21563 17.7503 9.06229 17.5494M8.30511 18.1275L9.06229 17.5494M8.30511 18.1275C8.25412 18.0607 8.18638 18.0087 8.10877 17.9765C8.03115 17.9444 7.94643 17.9334 7.86318 17.9446M9.06229 17.5494C8.90942 17.3489 8.70626 17.1935 8.47341 17.097C8.24057 17.0005 7.98633 16.9673 7.73651 17.0008M7.86318 17.9446L7.73651 17.0008M7.86318 17.9446C7.84604 17.9465 7.78032 17.9637 7.60984 18.0818C7.44316 18.197 7.23172 18.3694 6.92219 18.6237M7.73651 17.0008C7.48698 17.0341 7.26696 17.1598 7.066 17.2998C6.86123 17.4417 6.61646 17.6427 6.31835 17.8865M6.92219 18.6237L6.31835 17.8865M6.92219 18.6237C6.76599 18.7513 6.6317 18.8618 6.5136 18.9456C6.39169 19.0323 6.26311 19.1094 6.11072 19.158M6.31835 17.8865C6.20213 17.9843 6.08302 18.0787 5.96119 18.1694C5.91859 18.2034 5.87106 18.2307 5.82023 18.2503M6.93647 18.6113L6.30406 17.8989M6.11072 19.158L5.82023 18.2503M5.82023 18.2503C5.7108 18.2853 5.59241 18.2796 5.48688 18.2342M5.48688 18.2342C5.43817 18.2093 5.39353 18.1772 5.35449 18.1389C5.24217 18.0365 5.13291 17.9307 5.02686 17.8218M4.35349 18.4951L5.02686 17.8218M4.35349 18.4951L3.50298 17.6446M5.02686 17.8218L4.17634 16.9712M3.50298 17.6446L4.17634 16.9712M3.50298 17.6446C3.36106 17.5017 3.23725 17.3789 3.14201 17.2703C3.04295 17.157 2.95343 17.037 2.88961 16.8903M4.17634 16.9712C4.06708 16.8652 3.961 16.7559 3.85823 16.6436C3.81996 16.6046 3.78785 16.5599 3.76299 16.5112M2.88961 16.8903L3.76299 16.5112M2.88961 16.8903C2.7523 16.573 2.7347 16.2167 2.84009 15.8874M2.84009 15.8874C2.8893 15.7428 2.96098 15.6068 3.05248 15.4845C3.13629 15.3664 3.24677 15.2321 3.3744 15.0759M3.3744 15.0759L4.11158 15.6797M3.3744 15.0759C3.6287 14.7664 3.80013 14.5549 3.91633 14.3883C4.03443 14.2178 4.05062 14.1521 4.05348 14.1349M4.11158 15.6797C4.3554 15.3816 4.55636 15.1369 4.69827 14.9321C4.83828 14.7321 4.964 14.5111 4.99733 14.2616M4.05348 14.1349L4.99733 14.2616M4.05348 14.1349C4.06468 14.0517 4.05366 13.9669 4.02155 13.8893C3.98943 13.8117 3.93736 13.744 3.87061 13.693M4.99733 14.2616C5.03083 14.0118 4.99763 13.7575 4.90112 13.5247C4.8046 13.2918 4.6482 13.0887 4.44778 12.9358M3.87061 13.693L4.44778 12.9358M1.77242 13.3111L2.20958 12.4644M1.77242 13.3111C1.46524 13.1524 1.226 12.8878 1.09905 12.5663L1.98481 12.2167C2.02733 12.3237 2.10718 12.4117 2.20958 12.4644M1 11.6024L1.95243 11.6015M1 11.6024V10.3985M1.95243 11.6015V10.3985M1 10.3985H1.95243M1.95243 10.3985C1.95243 10.1852 1.95243 10.048 1.96005 9.94233C1.96051 9.888 1.96918 9.83406 1.98576 9.78232M1.98576 9.78232C2.02828 9.67532 2.10814 9.58735 2.21053 9.53469M2.77342 8.48988V9.44231M4.05443 7.86414C4.05157 7.84699 4.03633 7.78128 3.91823 7.61079C3.80204 7.44412 3.62965 7.23268 3.37535 6.92219M3.37535 6.92219L4.11253 6.3193M3.37535 6.92219C3.24773 6.76694 3.13724 6.6317 3.05343 6.51455C2.96676 6.39264 2.88866 6.26311 2.84104 6.11072M4.11253 6.3193C4.01471 6.20276 3.92038 6.08334 3.82966 5.96119C3.79545 5.91892 3.76784 5.87172 3.74775 5.82118M2.84104 6.11072L3.74775 5.82118M2.84104 6.11072C2.73589 5.78173 2.75348 5.42578 2.89057 5.10877M3.74775 5.82118C3.71306 5.71164 3.71915 5.59324 3.76489 5.48783M2.89057 5.10877L3.76489 5.48783M2.89057 5.10877C2.95386 4.96965 3.03872 4.8414 3.14201 4.72875C3.23725 4.61922 3.36106 4.49636 3.50393 4.35445M3.76489 5.48783C3.78983 5.43947 3.82194 5.3942 3.86014 5.35545C3.96217 5.24272 4.06795 5.13345 4.17729 5.02781M3.50393 4.35445L4.17729 5.02781M3.50393 4.35445L4.35445 3.50298M4.17729 5.02781L5.02781 4.17634M4.35445 3.50298L5.02781 4.17634M4.35445 3.50298C4.49636 3.36011 4.62017 3.23725 4.72875 3.14201C4.84145 3.03878 4.96969 2.95393 5.10877 2.89057M5.02781 4.17634C5.17925 4.02586 5.27639 3.92871 5.35545 3.85918C5.43164 3.79251 5.46783 3.77347 5.48783 3.76394M5.10877 2.89057L5.48783 3.76394M5.10877 2.89057C5.42595 2.75294 5.78228 2.735 6.11167 2.84009M5.48783 3.76394C5.59324 3.7182 5.71164 3.71306 5.82118 3.74775M6.11167 2.84009L5.82118 3.74775M6.11167 2.84009C6.25636 2.88955 6.39232 2.96155 6.51455 3.05343C6.63265 3.13724 6.76694 3.24773 6.92314 3.37535M5.82118 3.74775C5.87199 3.76746 5.91952 3.79475 5.96214 3.82871C6.04786 3.89061 6.15453 3.97728 6.32025 4.11253M6.92314 3.37535L6.32025 4.11253M6.92314 3.37535C7.14604 3.56417 7.3754 3.74428 7.61079 3.91728C7.78128 4.03538 7.84699 4.05157 7.86414 4.05443M6.32025 4.11253C6.61741 4.35635 6.86314 4.55731 7.06696 4.69922C7.26696 4.83828 7.48793 4.964 7.73746 4.99829M7.86414 4.05443L7.73746 4.99829M7.86414 4.05443C7.94747 4.06553 8.03225 4.05436 8.10987 4.02208C8.18749 3.98979 8.25518 3.93753 8.30606 3.87061M7.73746 4.99829C7.98735 5.03206 8.24172 4.99815 8.47475 4.9018C8.70777 4.80544 8.91114 4.64913 9.06419 4.44874M8.30606 3.87061L9.06419 4.44874M8.30606 3.87061C8.31749 3.85633 8.35178 3.79823 8.38892 3.59441C8.42512 3.39535 8.45178 3.12391 8.49179 2.7258M9.06419 4.44874C9.21658 4.24873 9.28325 4.00395 9.32611 3.76299C9.36992 3.51822 9.4023 3.20296 9.4404 2.82009L8.49179 2.7258M8.49179 2.7258C8.51179 2.52483 8.52893 2.35245 8.55274 2.20958C8.5775 2.06196 8.61465 1.91623 8.68798 1.77337M8.49179 2.7258L9.43945 2.82104C9.45266 2.6691 9.47045 2.5176 9.49278 2.36673C9.49879 2.31285 9.51292 2.26019 9.53469 2.21053M8.68798 1.77337L9.53469 2.21053M8.68798 1.77337C8.84642 1.46583 9.11106 1.22719 9.43278 1.1M9.53469 2.21053C9.58735 2.10814 9.67532 2.02828 9.78232 1.98576M9.43278 1.1L9.78232 1.98576M9.43278 1.1C9.57558 1.04624 9.72606 1.01569 9.87852 1.00952C10.0233 1 10.1976 1 10.3985 1M9.78232 1.98576C9.83406 1.96918 9.888 1.96051 9.94233 1.96005C10.0471 1.95243 10.1852 1.95243 10.3995 1.95243M10.3985 1L10.3995 1.95243M10.3985 1H11.6024M10.3995 1.95243H11.6024M11.6024 1V1.95243M11.6024 1C11.8034 1 11.9777 1 12.1215 1.00952C12.2745 1.01589 12.4256 1.04643 12.5691 1.1M11.6024 1.95243C11.8158 1.95243 11.9529 1.95243 12.0586 1.96005C12.1129 1.96081 12.1668 1.96948 12.2186 1.98576M12.5691 1.1L12.2186 1.98576M14.334 10.9995C14.334 11.8836 13.9828 12.7315 13.3576 13.3567C12.7325 13.9818 11.8846 14.333 11.0005 14.333M14.334 10.9995H15.2864M14.334 10.9995C14.334 10.1154 13.9828 9.26754 13.3576 8.64239C12.7325 8.01724 11.8846 7.66603 11.0005 7.66603M11.0005 14.333V15.2854M11.0005 14.333C10.1164 14.333 9.26849 13.9818 8.64334 13.3567C8.01819 12.7315 7.66698 11.8836 7.66698 10.9995M11.0005 15.2854C12.1372 15.2854 13.2273 14.8339 14.0311 14.0301C14.8348 13.2264 15.2864 12.1362 15.2864 10.9995M11.0005 15.2854C9.86378 15.2854 8.77364 14.8339 7.96987 14.0301C7.16611 13.2264 6.71456 12.1362 6.71456 10.9995M15.2864 10.9995C15.2864 9.86283 14.8348 8.77269 14.0311 7.96892C13.2273 7.16516 12.1372 6.71361 11.0005 6.71361M11.0005 7.66603V6.71361M11.0005 7.66603C10.1164 7.66603 9.26849 8.01724 8.64334 8.64239C8.01819 9.26754 7.66698 10.1154 7.66698 10.9995M11.0005 6.71361C9.86378 6.71361 8.77364 7.16516 7.96987 7.96892C7.16611 8.77269 6.71456 9.86283 6.71456 10.9995M7.66698 10.9995H6.71456" stroke="#292826" stroke-width="0.8"/>
</svg>
