<svg width="20" height="20" viewBox="0 0 20 20" fill="none" xmlns="http://www.w3.org/2000/svg">
<path fill-rule="evenodd" clip-rule="evenodd" d="M16 2C14.8954 2 14 2.89543 14 4C14 5.10457 14.8954 6 16 6C17.1046 6 18 5.10457 18 4C18 2.89543 17.1046 2 16 2ZM12 4C12 1.79086 13.7909 0 16 0C18.2091 0 20 1.79086 20 4C20 6.20914 18.2091 8 16 8C14.7961 8 13.7164 7.46813 12.9831 6.62655L7.91209 9.16206C7.96969 9.43228 8 9.7126 8 10C8 10.2873 7.96972 10.5675 7.91217 10.8376L12.9834 13.3732C13.7167 12.5317 14.7962 12 16 12C18.2091 12 20 13.7909 20 16C20 18.2091 18.2091 20 16 20C13.7909 20 12 18.2091 12 16C12 15.7124 12.0303 15.4319 12.088 15.1616L7.01724 12.6262C6.28392 13.468 5.20409 14 4 14C1.79086 14 0 12.2091 0 10C0 7.79086 1.79086 6 4 6C5.20395 6 6.28367 6.53191 7.01698 7.37354L12.0879 4.83807C12.0303 4.56781 12 4.28744 12 4ZM16 14C14.8954 14 14 14.8954 14 16C14 17.1046 14.8954 18 16 18C17.1046 18 18 17.1046 18 16C18 14.8954 17.1046 14 16 14ZM2 10C2 8.89543 2.89543 8 4 8C5.10457 8 6 8.89543 6 10C6 11.1046 5.10457 12 4 12C2.89543 12 2 11.1046 2 10Z" fill="#292826"/>
</svg>
