<svg width="23" height="20" viewBox="0 0 23 20" fill="none" xmlns="http://www.w3.org/2000/svg">
<path fill-rule="evenodd" clip-rule="evenodd" d="M3.79954 0.265181C4.7002 0.0650176 5.77285 0 7.01333 0H8.8107C9.92522 0 10.966 0.557004 11.5842 1.48433L12.487 2.83856C12.6931 3.14765 13.04 3.33333 13.4116 3.33333H19.0286C20.8036 3.33333 22.2424 4.73461 22.2254 6.53911C22.2052 8.68802 22.2222 10.8377 22.2222 12.9867C22.2222 14.2271 22.1572 15.2998 21.957 16.2005C21.7541 17.1137 21.3977 17.9168 20.7684 18.5461C20.139 19.1755 19.336 19.5319 18.4227 19.7348C17.522 19.935 16.4494 20 15.2089 20H7.01333C5.77285 20 4.7002 19.935 3.79954 19.7348C2.88627 19.5319 2.0832 19.1755 1.45387 18.5461C0.82454 17.9168 0.468147 17.1137 0.265181 16.2005C0.0650176 15.2998 0 14.2271 0 12.9867V7.01333C0 5.77285 0.0650176 4.7002 0.265181 3.79954C0.468147 2.88627 0.82454 2.0832 1.45387 1.45387C2.0832 0.82454 2.88627 0.468147 3.79954 0.265181ZM16.5071 6.29289C16.8976 6.68342 16.8976 7.31658 16.5071 7.70711L9.60007 14.6141C9.15821 15.056 8.44179 15.056 7.99992 14.6141L5.29289 11.9071C4.90237 11.5166 4.90237 10.8834 5.29289 10.4929C5.68342 10.1024 6.31658 10.1024 6.70711 10.4929L8.8 12.5858L15.0929 6.29289C15.4834 5.90237 16.1166 5.90237 16.5071 6.29289Z" fill="white"/>
</svg>
