<svg width="20" height="20" viewBox="0 0 20 20" fill="none" xmlns="http://www.w3.org/2000/svg">
<path fill-rule="evenodd" clip-rule="evenodd" d="M6.00027 5.99902C6.00027 3.78988 7.79113 1.99902 10.0003 1.99902C12.2094 1.99902 14.0003 3.78988 14.0003 5.99902C14.0003 8.20816 12.2094 9.99902 10.0003 9.99902C7.79113 9.99902 6.00027 8.20816 6.00027 5.99902ZM10.0003 -0.000976562C6.68656 -0.000976562 4.00027 2.68532 4.00027 5.99902C4.00027 9.31273 6.68656 11.999 10.0003 11.999C13.314 11.999 16.0003 9.31273 16.0003 5.99902C16.0003 2.68532 13.314 -0.000976562 10.0003 -0.000976562ZM1.9551 19.2962C2.35412 18.0139 3.01882 17.255 4.16141 16.7642C5.3946 16.2345 7.22921 15.999 10.0003 15.999C12.7713 15.999 14.6059 16.2345 15.8391 16.7642C16.9817 17.255 17.6464 18.0139 18.0454 19.2962C18.2095 19.8235 18.7701 20.118 19.2974 19.9539C19.8247 19.7898 20.1192 19.2292 19.9551 18.7019C19.3968 16.9079 18.3515 15.6667 16.6285 14.9266C14.996 14.2254 12.8092 13.999 10.0003 13.999C7.19131 13.999 5.00455 14.2254 3.37207 14.9266C1.64899 15.6667 0.603694 16.9079 0.0454296 18.7019C-0.11867 19.2292 0.175795 19.7898 0.703137 19.9539C1.23048 20.118 1.791 19.8235 1.9551 19.2962Z" fill="#292826"/>
</svg>
